<svg xmlns="http://www.w3.org/2000/svg" width="500" height="150"><path fill="#4A494A" d="M48.571 66.479H43.76c-8.218 0-12.326-2.491-12.326-7.472 0-2.25 1.273-4.101 3.82-5.551 2.546-1.447 6.366-2.173 11.46-2.173 3.573 0 6.895.415 9.962 1.244 3.066.832 5.6 2.021 7.598 3.567l-2.406 1.857c-3.518-2.42-8.568-3.63-15.153-3.63-4.221 0-7.316.437-9.286 1.308-1.97.873-2.955 1.999-2.955 3.377 0 1.604.689 2.744 2.068 3.42 1.379.675 3.785 1.013 7.219 1.013h4.812c7.823 0 13.858 1.78 18.108 5.34 4.249 3.561 6.374 8.323 6.374 14.29 0 2.729-.605 5.289-1.815 7.68-1.21 2.393-2.948 4.496-5.213 6.313-2.266 1.813-5.157 3.25-8.675 4.305s-7.429 1.582-11.734 1.582c-5.431 0-10.51-.822-15.237-2.469s-8.668-3.947-11.819-6.9l2.448-1.816c2.87 2.59 6.458 4.596 10.764 6.016 4.306 1.422 8.92 2.131 13.845 2.131 7.599 0 13.563-1.604 17.897-4.811 4.333-3.209 6.5-7.219 6.5-12.029 0-5.096-1.856-9.134-5.571-12.116s-9.007-4.476-15.874-4.476zm0 12.158H43.76c-7.824 0-13.859-1.779-18.108-5.341-4.25-3.559-6.374-8.322-6.374-14.288 0-2.729.604-5.289 1.815-7.682 1.209-2.392 2.947-4.495 5.213-6.311 2.265-1.814 5.156-3.25 8.674-4.306 3.518-1.055 7.429-1.582 11.734-1.582 5.431 0 10.511.822 15.238 2.469 4.728 1.646 8.667 3.947 11.818 6.901l-2.448 1.814c-2.87-2.588-6.458-4.593-10.764-6.015-4.305-1.42-8.92-2.131-13.845-2.131-7.598 0-13.563 1.604-17.896 4.812-4.334 3.208-6.501 7.218-6.501 12.029 0 5.095 1.857 9.133 5.572 12.115 3.714 2.982 9.004 4.475 15.871 4.475h4.643c8.329 0 12.494 2.49 12.494 7.473 0 2.25-1.273 4.1-3.82 5.551-2.547 1.449-6.366 2.172-11.46 2.172-3.573 0-6.895-.414-9.961-1.244-3.067-.83-5.601-2.02-7.598-3.568l2.405-1.855c3.518 2.42 8.569 3.629 15.153 3.629 4.222 0 7.316-.436 9.287-1.309 1.969-.871 2.954-1.998 2.954-3.375 0-1.605-.689-2.744-2.068-3.42s-3.784-1.013-7.217-1.013zm0-6.079H43.76c-5.91 0-10.455-1.203-13.635-3.608-3.18-2.407-4.77-5.721-4.77-9.941 0-3.938 1.871-7.224 5.614-9.856 3.742-2.629 8.99-3.945 15.744-3.945 4.502 0 8.702.619 12.601 1.857 3.896 1.238 7.14 2.982 9.729 5.233l-2.363 1.899c-2.308-1.885-5.206-3.348-8.695-4.39-3.49-1.041-7.246-1.562-11.271-1.562-5.938 0-10.476 1.013-13.613 3.039s-4.706 4.601-4.706 7.724c0 3.377 1.288 5.974 3.862 7.788 2.575 1.815 6.409 2.723 11.503 2.723h4.643c5.994 0 10.587 1.203 13.782 3.608 3.192 2.406 4.79 5.721 4.79 9.943 0 3.938-1.871 7.225-5.613 9.854-3.743 2.633-8.991 3.947-15.745 3.947-4.502 0-8.702-.619-12.6-1.857s-7.141-2.982-9.729-5.232l2.364-1.9c2.307 1.885 5.205 3.348 8.695 4.389 3.489 1.043 7.245 1.563 11.27 1.563 5.938 0 10.475-1.012 13.613-3.039 3.137-2.025 4.706-4.602 4.706-7.723 0-3.377-1.287-5.975-3.861-7.79-2.577-1.817-6.411-2.724-11.504-2.724zm29.38-31.87h3.039v60.784h-3.039V40.688zm6.078 0h3.039v60.784h-3.039V40.688zm6.079 0h3.039v60.784h-3.039V40.688zm6.079 0h3.039v60.784h-3.039V40.688zm37.188 25.791h-4.812c-8.218 0-12.325-2.491-12.325-7.472 0-2.25 1.272-4.101 3.82-5.551 2.546-1.447 6.366-2.173 11.459-2.173 3.574 0 6.895.415 9.962 1.244 3.067.832 5.6 2.021 7.598 3.567l-2.405 1.857c-3.519-2.42-8.569-3.63-15.154-3.63-4.221 0-7.316.437-9.286 1.308-1.97.873-2.954 1.999-2.954 3.377 0 1.604.688 2.744 2.068 3.42 1.378.675 3.784 1.013 7.218 1.013h4.812c7.823 0 13.859 1.78 18.108 5.34 4.249 3.561 6.374 8.323 6.374 14.29 0 2.729-.605 5.289-1.815 7.68-1.21 2.393-2.948 4.496-5.213 6.313-2.266 1.813-5.157 3.25-8.674 4.305-3.519 1.055-7.43 1.582-11.734 1.582-5.432 0-10.511-.822-15.238-2.469s-8.668-3.947-11.819-6.9l2.448-1.816c2.871 2.59 6.459 4.596 10.764 6.016 4.306 1.422 8.921 2.131 13.846 2.131 7.598 0 13.563-1.604 17.896-4.811 4.333-3.209 6.501-7.219 6.501-12.029 0-5.096-1.857-9.134-5.572-12.116-3.716-2.983-9.007-4.476-15.873-4.476zm0 12.158h-4.812c-7.823 0-13.859-1.779-18.108-5.341-4.249-3.559-6.374-8.322-6.374-14.288 0-2.729.605-5.289 1.815-7.682 1.21-2.392 2.947-4.495 5.213-6.311 2.265-1.814 5.156-3.25 8.674-4.306 3.518-1.055 7.43-1.582 11.734-1.582 5.431 0 10.511.822 15.238 2.469 4.728 1.646 8.667 3.947 11.819 6.901l-2.448 1.814c-2.871-2.588-6.459-4.593-10.764-6.015-4.306-1.42-8.921-2.131-13.846-2.131-7.598 0-13.563 1.604-17.896 4.812-4.334 3.208-6.501 7.218-6.501 12.029 0 5.095 1.857 9.133 5.572 12.115 3.714 2.982 9.005 4.475 15.871 4.475h4.643c8.33 0 12.494 2.49 12.494 7.473 0 2.25-1.273 4.1-3.82 5.551-2.547 1.449-6.366 2.172-11.459 2.172-3.574 0-6.896-.414-9.962-1.244-3.067-.83-5.601-2.02-7.598-3.568l2.405-1.855c3.518 2.42 8.569 3.629 15.154 3.629 4.221 0 7.315-.436 9.286-1.309 1.969-.871 2.954-1.998 2.954-3.375 0-1.605-.689-2.744-2.068-3.42s-3.782-1.013-7.216-1.013zm0-6.079h-4.812c-5.91 0-10.454-1.203-13.634-3.608-3.181-2.407-4.771-5.721-4.771-9.941 0-3.938 1.871-7.224 5.614-9.856 3.742-2.629 8.991-3.945 15.744-3.945 4.502 0 8.702.619 12.601 1.857 3.896 1.238 7.14 2.982 9.729 5.233l-2.364 1.899c-2.308-1.885-5.206-3.348-8.695-4.39-3.489-1.041-7.246-1.562-11.271-1.562-5.938 0-10.476 1.013-13.612 3.039-3.139 2.026-4.707 4.601-4.707 7.724 0 3.377 1.288 5.974 3.862 7.788 2.575 1.815 6.409 2.723 11.503 2.723h4.643c5.994 0 10.588 1.203 13.782 3.608 3.193 2.406 4.791 5.721 4.791 9.943 0 3.938-1.872 7.225-5.614 9.854-3.743 2.633-8.991 3.947-15.744 3.947-4.503 0-8.703-.619-12.601-1.857s-7.141-2.982-9.729-5.232l2.364-1.9c2.307 1.885 5.206 3.348 8.695 4.389 3.489 1.043 7.246 1.563 11.271 1.563 5.937 0 10.474-1.012 13.612-3.039 3.138-2.025 4.706-4.602 4.706-7.723 0-3.377-1.287-5.975-3.861-7.79-2.574-1.817-6.409-2.724-11.502-2.724z"/><path fill="#45B47D" d="M210.368 70.742l-.084-.041c3.18-3.096 4.77-6.866 4.77-11.313 0-4.221-1.569-7.886-4.707-10.997-3.138-3.108-6.845-4.663-11.122-4.663h-33.431v57.744h-3.039V40.688h36.47c3.32 0 6.438.853 9.35 2.554 2.913 1.704 5.228 3.997 6.944 6.881 1.717 2.886 2.574 5.973 2.574 9.266 0 4.502-1.21 8.371-3.63 11.607 2.42 3.349 3.63 7.035 3.63 11.061 0 3.855-.871 7.254-2.616 10.193-1.745 2.941-4.032 5.156-6.859 6.648-2.829 1.49-5.959 2.236-9.393 2.236H180.02v-3.039h19.205c4.334 0 8.055-1.539 11.165-4.623 3.109-3.08 4.664-6.885 4.664-11.416 0-2.082-.45-4.139-1.351-6.165-.901-2.025-2.026-3.728-3.377-5.106 0-.027.014-.043.042-.043zm-11.143 21.276H180.02v3.039h19.205c3.489 0 6.493-1.246 9.012-3.734 2.519-2.492 3.778-5.58 3.778-9.266 0-2.336-.627-4.539-1.878-6.607-1.253-2.069-2.906-3.665-4.96-4.791 2.054-1.068 3.707-2.597 4.96-4.58 1.251-1.984 1.878-4.214 1.878-6.689 0-3.377-1.273-6.324-3.819-8.844-2.548-2.518-5.537-3.777-8.971-3.777h-30.391v54.705h3.039V49.807h27.352c2.589 0 4.861.964 6.817 2.891 1.955 1.929 2.934 4.158 2.934 6.691 0 2.813-.957 5.127-2.87 6.943-1.914 1.814-4.207 2.722-6.881 2.722H180.02v3.039h19.205c2.589 0 4.861 1 6.817 2.998 1.955 1.999 2.934 4.319 2.934 6.966 0 2.926-.957 5.316-2.87 7.174-1.915 1.857-4.208 2.787-6.881 2.787zm0-29.042H180.02v3.039h19.205c1.886 0 3.476-.597 4.771-1.793 1.294-1.196 1.941-2.808 1.941-4.833 0-1.717-.676-3.236-2.026-4.559-1.351-1.323-2.912-1.984-4.686-1.984h-24.313v48.627h3.039V55.885h21.273c.957 0 1.808.358 2.555 1.076.744.717 1.118 1.526 1.118 2.428 0 1.154-.353 2.04-1.056 2.658-.702.62-1.575.929-2.616.929zm0 22.963H180.02v3.039h19.205c1.857 0 3.44-.627 4.749-1.877 1.309-1.254 1.963-2.936 1.963-5.045 0-1.83-.676-3.441-2.026-4.834-1.351-1.395-2.912-2.091-4.686-2.091h-19.247v3.04h19.247c.957 0 1.808.395 2.555 1.184.744.787 1.118 1.688 1.118 2.701 0 1.236-.353 2.195-1.056 2.869-.703.677-1.576 1.014-2.617 1.014zm25.159-1.876c-1.772-4.123-2.658-8.451-2.658-12.982 0-4.529.886-8.856 2.658-12.979 1.773-4.122 4.151-7.675 7.135-10.658 2.981-2.982 6.535-5.36 10.657-7.133s8.447-2.66 12.98-2.66c4.529 0 8.856.888 12.978 2.66 4.124 1.772 7.677 4.15 10.66 7.133 2.981 2.983 5.359 6.536 7.134 10.658a32.55 32.55 0 0 1 2.659 12.979c0 4.531-.888 8.859-2.659 12.982-1.774 4.121-4.152 7.674-7.134 10.656-2.983 2.982-6.536 5.361-10.66 7.133-4.121 1.773-8.448 2.66-12.978 2.66-4.533 0-8.858-.887-12.98-2.66-4.122-1.771-7.676-4.15-10.657-7.133-2.984-2.983-5.362-6.535-7.135-10.656zm2.786-24.781a29.743 29.743 0 0 0-2.405 11.798c0 4.108.802 8.041 2.405 11.799 1.604 3.758 3.764 6.992 6.479 9.709 2.716 2.715 5.951 4.875 9.709 6.479a29.733 29.733 0 0 0 11.798 2.406c4.108 0 8.04-.803 11.796-2.406 3.759-1.604 6.994-3.764 9.71-6.479 2.715-2.717 4.875-5.951 6.479-9.709a29.75 29.75 0 0 0 2.407-11.799c0-4.107-.803-8.041-2.407-11.798-1.604-3.756-3.764-6.992-6.479-9.708-2.716-2.715-5.951-4.875-9.71-6.479a29.731 29.731 0 0 0-11.796-2.407c-4.109 0-8.042.803-11.798 2.407-3.758 1.604-6.993 3.764-9.709 6.479-2.715 2.716-4.875 5.952-6.479 9.708zm2.807 22.437c-1.449-3.377-2.173-6.924-2.173-10.639s.724-7.26 2.173-10.637 3.391-6.282 5.825-8.716 5.341-4.375 8.718-5.825a26.696 26.696 0 0 1 10.637-2.174 26.7 26.7 0 0 1 10.638 2.174c3.377 1.45 6.281 3.392 8.715 5.825 2.433 2.434 4.376 5.339 5.826 8.716 1.447 3.377 2.174 6.922 2.174 10.637s-.727 7.262-2.174 10.639c-1.45 3.377-3.394 6.281-5.826 8.715-2.434 2.436-5.338 4.377-8.715 5.826a26.666 26.666 0 0 1-10.638 2.174c-3.714 0-7.261-.723-10.637-2.174-3.377-1.449-6.283-3.391-8.718-5.826-2.435-2.434-4.376-5.338-5.825-8.715zm2.786-20.073c-1.28 2.998-1.92 6.143-1.92 9.435s.64 6.438 1.92 9.436c1.28 2.996 3.012 5.586 5.192 7.768 2.18 2.18 4.77 3.91 7.767 5.189a23.757 23.757 0 0 0 9.435 1.922c3.292 0 6.438-.641 9.433-1.922 2.997-1.279 5.585-3.01 7.767-5.189 2.181-2.182 3.911-4.771 5.192-7.768 1.281-2.998 1.922-6.144 1.922-9.436s-.641-6.437-1.922-9.435c-1.281-2.996-3.012-5.584-5.192-7.767-2.182-2.18-4.77-3.909-7.767-5.19a23.763 23.763 0 0 0-9.433-1.921c-3.293 0-6.438.641-9.435 1.921-2.997 1.281-5.587 3.011-7.767 5.19-2.181 2.183-3.912 4.77-5.192 7.767zm3.967 20.114c-1.899-3.264-2.849-6.824-2.849-10.68 0-3.854.949-7.414 2.849-10.679 1.9-3.265 4.481-5.847 7.746-7.745 3.264-1.9 6.822-2.85 10.68-2.85 3.854 0 7.413.949 10.679 2.85 3.264 1.898 5.845 4.48 7.746 7.745 1.899 3.265 2.85 6.824 2.85 10.679 0 3.855-.95 7.416-2.85 10.68-1.901 3.266-4.482 5.848-7.746 7.746-3.266 1.898-6.825 2.85-10.679 2.85-3.857 0-7.416-.951-10.68-2.85-3.264-1.899-5.845-4.481-7.746-7.746zm5.531-23.553c-3.561 3.573-5.34 7.864-5.34 12.873 0 5.01 1.779 9.303 5.34 12.875 3.56 3.574 7.856 5.361 12.896 5.361 5.035 0 9.335-1.787 12.895-5.361 3.56-3.572 5.341-7.865 5.341-12.875 0-5.009-1.781-9.3-5.341-12.873s-7.859-5.361-12.895-5.361c-5.04 0-9.337 1.788-12.896 5.361zm2.152 23.615c-2.969-2.967-4.453-6.549-4.453-10.742 0-4.192 1.484-7.772 4.453-10.742 2.968-2.969 6.548-4.453 10.743-4.453 4.191 0 7.771 1.484 10.741 4.453 2.97 2.97 4.455 6.55 4.455 10.742 0 4.193-1.485 7.775-4.455 10.742-2.97 2.971-6.55 4.455-10.741 4.455-4.195 0-7.775-1.484-10.743-4.455zm2.153-19.332c-2.379 2.379-3.567 5.242-3.567 8.59 0 3.349 1.188 6.213 3.567 8.592 2.377 2.377 5.239 3.566 8.59 3.566 3.347 0 6.211-1.189 8.588-3.566 2.378-2.379 3.569-5.243 3.569-8.592 0-3.348-1.191-6.211-3.569-8.59-2.377-2.377-5.241-3.566-8.588-3.566-3.35 0-6.213 1.189-8.59 3.566zm47.086-21.802h3.039v60.784h-3.039V40.688zm6.078 0h3.039v60.784h-3.039V40.688zm6.079 0h3.039v60.784h-3.039V40.688zm6.079 0h3.039v45.589h22.414v3.039h-22.414v3.039h22.414v3.039h-22.414v3.039h22.414v3.039h-25.453V40.688zm94.848 30.814v29.971h-3.039V71.502c0-5.74-1.339-10.869-4.011-15.385-2.674-4.518-6.318-8.005-10.933-10.468-4.616-2.463-9.765-3.694-15.448-3.694-5.46 0-10.456 1.31-14.984 3.927-4.531 2.616-8.091 6.155-10.679 10.614-2.591 4.462-3.884 9.322-3.884 14.584 0 3.461.555 6.748 1.665 9.857 1.113 3.109 2.633 5.826 4.559 8.145a31.31 31.31 0 0 0 6.671 6.018 30.055 30.055 0 0 0 8.146 3.842 30.857 30.857 0 0 0 8.887 1.307c3.318 0 6.472-.633 9.455-1.9v3.125a28.829 28.829 0 0 1-9.624 1.646 34.71 34.71 0 0 1-9.94-1.436c-3.223-.957-6.206-2.371-8.949-4.242s-5.157-4.08-7.239-6.627c-2.084-2.545-3.715-5.521-4.896-8.928-1.182-3.404-1.771-7.008-1.771-10.807 0-4.361.821-8.519 2.468-12.474 1.646-3.952 3.897-7.371 6.754-10.256s6.316-5.178 10.385-6.881c4.066-1.701 8.391-2.554 12.979-2.554 4.67 0 9.06.789 13.17 2.364 4.107 1.576 7.653 3.764 10.637 6.563 2.981 2.801 5.332 6.24 7.048 10.32 1.713 4.083 2.573 8.528 2.573 13.34zm-6.078 0v29.971h-3.039V71.502c0-4.643-1.063-8.759-3.188-12.346-2.125-3.589-5.03-6.339-8.717-8.252s-7.824-2.871-12.409-2.871c-4.364 0-8.345 1.034-11.945 3.104-3.604 2.067-6.423 4.861-8.463 8.378-2.043 3.518-3.061 7.373-3.061 11.565 0 3.603.659 6.889 1.982 9.857s3.104 5.41 5.341 7.322c2.236 1.914 4.782 3.4 7.639 4.455s5.848 1.582 8.97 1.582c3.181 0 6.303-.66 9.372-1.984v3.082c-3.208 1.209-6.36 1.814-9.455 1.814-4.869 0-9.345-1.098-13.424-3.293-4.08-2.193-7.344-5.303-9.793-9.326-2.447-4.025-3.671-8.529-3.671-13.51 0-3.546.68-6.923 2.047-10.131 1.365-3.208 3.213-5.979 5.551-8.314 2.334-2.336 5.148-4.193 8.442-5.571 3.291-1.379 6.779-2.069 10.468-2.069 5.148 0 9.798 1.098 13.949 3.293 4.152 2.194 7.422 5.318 9.813 9.37s3.591 8.668 3.591 13.845zm-37.989-53.354h21.23v3.039h-21.23c-.902 0-1.584.009-2.049.021-.463.015-1.104.058-1.92.127-.816.07-1.45.176-1.898.316-.451.142-1.007.352-1.668.633-.662.282-1.182.62-1.562 1.013a14.24 14.24 0 0 0-1.246 1.521 6.647 6.647 0 0 0-1.014 2.11c-.224.788-.414 1.724-.568 2.807a25.646 25.646 0 0 0-.231 3.609h-3.039c0-1.632.11-3.13.338-4.495.224-1.365.506-2.54.844-3.525a8.997 8.997 0 0 1 1.413-2.638c.604-.773 1.175-1.406 1.709-1.9.534-.491 1.224-.913 2.068-1.266a20.513 20.513 0 0 1 2.153-.781c.592-.169 1.364-.302 2.322-.401a32.926 32.926 0 0 1 2.215-.168 87.991 87.991 0 0 1 2.133-.022zm31.911 53.354v29.971h-3.039V71.502c0-5.318-1.705-9.545-5.109-12.684-3.404-3.138-7.78-4.707-13.126-4.707-4.954 0-9.092 1.647-12.41 4.939-3.321 3.292-4.98 7.302-4.98 12.029 0 2.87.498 5.445 1.497 7.725.999 2.281 2.356 4.109 4.075 5.488a18.662 18.662 0 0 0 5.762 3.146c2.123.717 4.368 1.074 6.732 1.074 3.208 0 6.259-.744 9.159-2.236v3.209c-3.039 1.264-6.108 1.898-9.203 1.898-2.785 0-5.431-.428-7.936-1.289-2.505-.857-4.741-2.109-6.71-3.756-1.971-1.646-3.534-3.783-4.686-6.416-1.154-2.631-1.73-5.579-1.73-8.844 0-5.543 1.962-10.264 5.887-14.162 3.927-3.896 8.772-5.846 14.543-5.846 4.053 0 7.682.824 10.89 2.47 3.208 1.646 5.74 4.031 7.598 7.154 1.856 3.126 2.786 6.728 2.786 10.808zm-4.602-53.354h3.039c0 1.267-.12 2.393-.358 3.377-.238.985-.534 1.794-.886 2.428a4.99 4.99 0 0 1-1.413 1.604c-.593.438-1.12.767-1.585.992s-1.055.395-1.771.507c-.72.112-1.261.176-1.626.189-.365.016-.858.021-1.478.021h-21.23c-.818 0-1.43.016-1.836.043-.41.028-.938.147-1.585.358s-1.126.514-1.434.908c-.311.395-.592.991-.845 1.794-.254.801-.379 1.793-.379 2.976h-3.039c0-1.267.118-2.392.358-3.377.238-.984.534-1.794.886-2.428a5 5 0 0 1 1.413-1.604c.593-.436 1.119-.766 1.585-.991.462-.226 1.055-.395 1.771-.507s1.258-.176 1.626-.19c.365-.013.857-.021 1.478-.021h21.23c.816 0 1.429-.014 1.836-.041.407-.028.935-.148 1.585-.36.645-.21 1.124-.512 1.434-.906s.592-.992.844-1.795c.255-.802.38-1.795.38-2.977zm-4.515 53.354c0-3.601-1.112-6.387-3.336-8.357-2.225-1.97-5.164-2.955-8.821-2.955-3.097 0-5.757 1.07-7.979 3.208-2.223 2.14-3.332 4.7-3.332 7.683 0 1.688.224 3.202.675 4.538.449 1.337 1.062 2.448 1.834 3.335a9.748 9.748 0 0 0 2.767 2.193c1.068.58 2.188.994 3.355 1.248a17.67 17.67 0 0 0 3.735.379c3.208 0 6.134-.787 8.78-2.363v3.039c-2.731 1.436-5.671 2.152-8.821 2.152-2.026 0-3.935-.275-5.72-.822a15.485 15.485 0 0 1-4.876-2.492c-1.464-1.109-2.625-2.629-3.483-4.559-.857-1.927-1.286-4.144-1.286-6.648 0-3.884 1.362-7.176 4.095-9.877 2.729-2.702 6.147-4.053 10.257-4.053 4.529 0 8.195 1.274 10.996 3.82 2.799 2.548 4.2 6.058 4.2 10.531v29.971h-3.039V71.502zm10.593-53.354h3.039c0 1.633-.113 3.132-.338 4.495-.224 1.366-.506 2.541-.844 3.525a9.006 9.006 0 0 1-1.413 2.638c-.606.774-1.175 1.408-1.71 1.899-.536.493-1.223.915-2.067 1.267-.844.353-1.563.612-2.153.781-.592.168-1.367.303-2.322.4-.957.1-1.695.155-2.216.169-.521.016-1.232.021-2.132.021h-21.23v-3.039h21.23c.899 0 1.584-.006 2.047-.021a36.039 36.039 0 0 0 1.922-.127c.814-.069 1.447-.175 1.898-.315a18.913 18.913 0 0 0 1.668-.634c.661-.281 1.182-.619 1.562-1.014.379-.393.795-.899 1.246-1.52a6.71 6.71 0 0 0 1.013-2.11c.225-.787.414-1.723.569-2.807a25.71 25.71 0 0 0 .231-3.608zm17.52 65.915c-1.774-4.123-2.66-8.451-2.66-12.982 0-4.529.886-8.856 2.66-12.979 1.771-4.122 4.149-7.675 7.133-10.658 2.981-2.982 6.536-5.36 10.657-7.133 4.122-1.772 8.449-2.66 12.98-2.66s8.855.888 12.979 2.66c4.122 1.772 7.675 4.15 10.658 7.133 2.981 2.983 5.361 6.536 7.133 10.658 1.774 4.123 2.66 8.45 2.66 12.979 0 4.531-.886 8.859-2.66 12.982-1.771 4.121-4.151 7.674-7.133 10.656-2.983 2.982-6.536 5.361-10.658 7.133-4.124 1.773-8.448 2.66-12.979 2.66s-8.858-.887-12.98-2.66c-4.121-1.771-7.676-4.15-10.657-7.133-2.983-2.983-5.361-6.535-7.133-10.656zm2.784-24.781a29.76 29.76 0 0 0-2.405 11.798c0 4.108.803 8.041 2.405 11.799 1.605 3.758 3.764 6.992 6.48 9.709 2.716 2.715 5.951 4.875 9.708 6.479a29.733 29.733 0 0 0 11.798 2.406c4.107 0 8.042-.803 11.798-2.406s6.992-3.764 9.707-6.479c2.716-2.717 4.876-5.951 6.48-9.709a29.748 29.748 0 0 0 2.406-11.799c0-4.107-.803-8.041-2.406-11.798-1.604-3.756-3.765-6.992-6.48-9.708-2.715-2.715-5.951-4.875-9.707-6.479a29.74 29.74 0 0 0-11.798-2.407c-4.11 0-8.042.803-11.798 2.407-3.757 1.604-6.992 3.764-9.708 6.479-2.716 2.716-4.874 5.952-6.48 9.708zm2.808 22.437c-1.45-3.377-2.174-6.924-2.174-10.639s.724-7.26 2.174-10.637c1.448-3.377 3.391-6.282 5.824-8.716 2.436-2.434 5.341-4.375 8.718-5.825a26.692 26.692 0 0 1 10.637-2.174c3.714 0 7.26.725 10.637 2.174 3.377 1.45 6.282 3.392 8.718 5.825 2.433 2.434 4.373 5.339 5.823 8.716s2.174 6.922 2.174 10.637-.724 7.262-2.174 10.639-3.391 6.281-5.823 8.715c-2.436 2.436-5.341 4.377-8.718 5.826a26.665 26.665 0 0 1-10.637 2.174c-3.715 0-7.261-.723-10.637-2.174-3.377-1.449-6.282-3.391-8.718-5.826-2.433-2.434-4.376-5.338-5.824-8.715zm2.785-20.073c-1.279 2.998-1.92 6.143-1.92 9.435s.641 6.438 1.92 9.436c1.281 2.996 3.012 5.586 5.192 7.768 2.181 2.18 4.77 3.91 7.767 5.189a23.76 23.76 0 0 0 9.435 1.922c3.291 0 6.437-.641 9.434-1.922 2.998-1.279 5.586-3.01 7.768-5.189 2.181-2.182 3.911-4.771 5.192-7.768 1.278-2.998 1.919-6.144 1.919-9.436s-.641-6.437-1.919-9.435c-1.281-2.996-3.012-5.584-5.192-7.767-2.182-2.18-4.77-3.909-7.768-5.19a23.779 23.779 0 0 0-9.434-1.921c-3.294 0-6.437.641-9.435 1.921-2.997 1.281-5.586 3.011-7.767 5.19-2.18 2.183-3.911 4.77-5.192 7.767zm3.969 20.114c-1.898-3.264-2.85-6.824-2.85-10.68 0-3.854.951-7.414 2.85-10.679a21.05 21.05 0 0 1 7.746-7.745c3.264-1.9 6.823-2.85 10.679-2.85s7.415.949 10.679 2.85a21.063 21.063 0 0 1 7.745 7.745c1.899 3.265 2.85 6.824 2.85 10.679 0 3.855-.95 7.416-2.85 10.68a21.058 21.058 0 0 1-7.745 7.746c-3.264 1.898-6.823 2.85-10.679 2.85s-7.415-.951-10.679-2.85a21.06 21.06 0 0 1-7.746-7.746zm5.53-23.553c-3.562 3.573-5.341 7.864-5.341 12.873 0 5.01 1.779 9.303 5.341 12.875 3.56 3.574 7.856 5.361 12.895 5.361 5.037 0 9.335-1.787 12.895-5.361 3.56-3.572 5.34-7.865 5.34-12.875 0-5.009-1.78-9.3-5.34-12.873s-7.857-5.361-12.895-5.361c-5.038 0-9.335 1.788-12.895 5.361zm2.152 23.615c-2.968-2.967-4.453-6.549-4.453-10.742 0-4.192 1.485-7.772 4.453-10.742 2.97-2.969 6.55-4.453 10.743-4.453s7.773 1.484 10.743 4.453c2.968 2.97 4.452 6.55 4.452 10.742 0 4.193-1.484 7.775-4.452 10.742-2.97 2.971-6.55 4.455-10.743 4.455s-7.774-1.484-10.743-4.455zm2.153-19.332c-2.378 2.379-3.566 5.242-3.566 8.59 0 3.349 1.188 6.213 3.566 8.592 2.377 2.377 5.24 3.566 8.59 3.566 3.349 0 6.212-1.189 8.59-3.566 2.378-2.379 3.566-5.243 3.566-8.592 0-3.348-1.188-6.211-3.566-8.59-2.378-2.377-5.241-3.566-8.59-3.566-3.35 0-6.213 1.189-8.59 3.566z"/><path d="M170.333 117.156h1.711v5.174a8.528 8.528 0 0 1-2.496 1.348 8.492 8.492 0 0 1-2.838.504c-1.356 0-2.597-.318-3.725-.957-1.127-.637-2.017-1.51-2.667-2.617s-.976-2.318-.976-3.633.329-2.52.986-3.613a7.088 7.088 0 0 1 2.698-2.588c1.141-.631 2.402-.945 3.785-.945.979 0 1.936.174 2.869.523.933.35 1.741.824 2.426 1.43l-1.107 1.408a6.108 6.108 0 0 0-1.942-1.217 6.063 6.063 0 0 0-2.245-.434c-1.007 0-1.933.242-2.778.725s-1.513 1.141-2.003 1.973a5.296 5.296 0 0 0-.735 2.738 5.3 5.3 0 0 0 .745 2.748 5.51 5.51 0 0 0 2.013 1.992c.846.49 1.771.734 2.778.734.59 0 1.191-.096 1.802-.291a6.819 6.819 0 0 0 1.701-.814v-4.188zm17.232-2.365c.846.973 1.268 2.324 1.268 4.055 0 .27-.007.471-.02.605h-8.415c.148.953.547 1.711 1.198 2.273.65.564 1.453.846 2.405.846.631 0 1.218-.113 1.762-.342s1.017-.551 1.419-.967l1.026 1.068c-.523.563-1.154 1-1.892 1.309-.738.309-1.557.463-2.456.463-1.047 0-1.977-.225-2.788-.676a4.722 4.722 0 0 1-1.893-1.902c-.45-.818-.674-1.75-.674-2.797s.225-1.977.674-2.789 1.077-1.449 1.882-1.912 1.725-.695 2.758-.695c1.653 0 2.901.486 3.746 1.461zm-.422 3.211c-.054-.967-.376-1.729-.966-2.285-.591-.557-1.369-.836-2.335-.836-.94 0-1.721.281-2.346.846-.624.563-.996 1.322-1.117 2.275h6.764zm11.635-4.057c.644-.396 1.409-.602 2.295-.615v1.813c-1.087-.041-1.966.242-2.637.846s-1.054 1.416-1.147 2.436v5.617h-1.872v-10.65h1.872v2.295c.349-.765.845-1.347 1.489-1.742zm16.368.846c.845.973 1.268 2.324 1.268 4.055 0 .27-.007.471-.02.605h-8.416c.148.953.547 1.711 1.198 2.273.65.564 1.453.846 2.405.846.631 0 1.218-.113 1.762-.342a4.245 4.245 0 0 0 1.419-.967l1.026 1.068c-.523.563-1.154 1-1.893 1.309-.737.309-1.557.463-2.456.463-1.047 0-1.977-.225-2.788-.676a4.722 4.722 0 0 1-1.893-1.902c-.45-.818-.674-1.75-.674-2.797s.225-1.977.674-2.789 1.077-1.449 1.882-1.912 1.725-.695 2.758-.695c1.653 0 2.902.486 3.748 1.461zm-.423 3.211c-.054-.967-.376-1.729-.967-2.285s-1.369-.836-2.335-.836c-.94 0-1.721.281-2.346.846-.624.563-.996 1.322-1.117 2.275h6.765zm17.131-3.574c.712.732 1.067 1.742 1.067 3.029v6.584h-1.872v-6.08c0-.898-.252-1.6-.755-2.104-.504-.504-1.198-.756-2.084-.756-.953.014-1.729.32-2.325.916-.598.598-.936 1.373-1.017 2.326v5.697h-1.872v-10.65h1.872v2.256c.711-1.518 2.061-2.289 4.047-2.316 1.248 0 2.228.367 2.939 1.098zm12.864.574c-.698 0-1.318.154-1.862.463a3.28 3.28 0 0 0-1.278 1.309c-.309.563-.463 1.215-.463 1.953s.151 1.389.453 1.951a3.336 3.336 0 0 0 1.248 1.32c.53.314 1.138.473 1.822.473s1.302-.115 1.852-.342a3.55 3.55 0 0 0 1.369-.986l1.067 1.086a4.717 4.717 0 0 1-1.843 1.389c-.744.322-1.587.484-2.526.484-1.033 0-1.952-.229-2.758-.686a4.822 4.822 0 0 1-1.882-1.902c-.45-.811-.675-1.74-.675-2.787s.225-1.98.675-2.799a4.808 4.808 0 0 1 1.882-1.912c.806-.457 1.725-.686 2.758-.686.899 0 1.708.139 2.426.414a4.673 4.673 0 0 1 1.802 1.197l-1.026 1.289c-.847-.82-1.861-1.228-3.041-1.228zm12.673-5.516c.221.229.332.516.332.865s-.111.637-.332.865c-.222.229-.5.342-.836.342-.335 0-.614-.113-.835-.342-.222-.229-.332-.516-.332-.865s.11-.637.332-.865c.221-.229.5-.344.835-.344.336.001.614.116.836.344zm-1.762 3.905h1.872v10.65h-1.872v-10.65zm16.044 10.65v-1.49c-.792 1.047-2.033 1.57-3.724 1.57-.738 0-1.386-.141-1.943-.422-.557-.283-.986-.672-1.288-1.168s-.453-1.055-.453-1.672c0-.953.353-1.707 1.058-2.264.704-.557 1.688-.844 2.949-.855h3.382v-.504c0-.752-.231-1.332-.694-1.742-.464-.408-1.138-.613-2.023-.613-1.074 0-2.168.383-3.281 1.146l-.785-1.287c.765-.496 1.473-.855 2.124-1.078.65-.221 1.426-.332 2.325-.332 1.328 0 2.354.326 3.08.977.725.652 1.093 1.561 1.106 2.729l.021 7.006h-1.854zm-1.117-2.103c.611-.424.977-.984 1.098-1.682v-1.066h-3.12c-.846 0-1.474.127-1.883.383-.409.254-.614.656-.614 1.207s.208.986.624 1.309.974.482 1.671.482c.872-.001 1.613-.212 2.224-.633zm20.262-12.834v14.938h-1.872v-2.115a4.233 4.233 0 0 1-1.621 1.643c-.678.381-1.466.572-2.365.572-1.007 0-1.896-.23-2.667-.693a4.76 4.76 0 0 1-1.802-1.934c-.43-.824-.645-1.768-.645-2.828 0-1.047.215-1.977.645-2.789a4.732 4.732 0 0 1 1.802-1.902c.771-.455 1.653-.684 2.646-.684.913 0 1.712.188 2.396.564a4.004 4.004 0 0 1 1.61 1.629v-6.4h1.873zm-3.613 12.943a3.396 3.396 0 0 0 1.278-1.348c.309-.578.463-1.229.463-1.953 0-.738-.154-1.396-.463-1.973a3.408 3.408 0 0 0-1.278-1.35c-.544-.322-1.165-.482-1.862-.482-.698 0-1.319.164-1.862.492-.544.33-.97.783-1.278 1.359-.309.578-.463 1.229-.463 1.953s.154 1.375.463 1.953a3.402 3.402 0 0 0 1.278 1.348c.543.322 1.164.484 1.862.484.697.001 1.318-.161 1.862-.483zm18.661-8.031a4.91 4.91 0 0 1 1.933 1.902c.464.813.695 1.74.695 2.787s-.231 1.98-.695 2.799a4.89 4.89 0 0 1-1.933 1.912c-.825.457-1.768.686-2.828.686-1.074 0-2.023-.229-2.849-.686a4.917 4.917 0 0 1-1.933-1.902c-.463-.811-.694-1.748-.694-2.809 0-1.047.231-1.975.694-2.787s1.107-1.447 1.933-1.902c.825-.457 1.774-.686 2.849-.686 1.061 0 2.003.229 2.828.686zm-4.69 1.429a3.33 3.33 0 0 0-1.268 1.338c-.303.57-.453 1.219-.453 1.943 0 .738.15 1.395.453 1.973a3.262 3.262 0 0 0 1.268 1.338c.544.316 1.164.473 1.862.473.685 0 1.299-.156 1.842-.473a3.252 3.252 0 0 0 1.269-1.338c.302-.578.453-1.234.453-1.973 0-.725-.151-1.373-.453-1.943s-.725-1.018-1.269-1.338a3.543 3.543 0 0 0-1.842-.484c-.698 0-1.318.162-1.862.484zm17.323-1.5c.644-.396 1.409-.602 2.295-.615v1.813c-1.088-.041-1.967.242-2.638.846s-1.054 1.416-1.147 2.436v5.617h-1.872v-10.65h1.872v2.295c.348-.765.845-1.347 1.49-1.742zm27.579-4.841v14.938h-1.872v-2.115a4.233 4.233 0 0 1-1.621 1.643c-.678.381-1.466.572-2.365.572-1.007 0-1.896-.23-2.667-.693a4.76 4.76 0 0 1-1.802-1.934c-.43-.824-.645-1.768-.645-2.828 0-1.047.215-1.977.645-2.789a4.732 4.732 0 0 1 1.802-1.902c.771-.455 1.653-.684 2.646-.684.913 0 1.712.188 2.396.564a4.004 4.004 0 0 1 1.61 1.629v-6.4h1.873zm-3.613 12.943a3.396 3.396 0 0 0 1.278-1.348c.309-.578.463-1.229.463-1.953 0-.738-.154-1.396-.463-1.973a3.408 3.408 0 0 0-1.278-1.35c-.544-.322-1.165-.482-1.862-.482-.698 0-1.319.164-1.862.492-.544.33-.97.783-1.278 1.359-.309.578-.463 1.229-.463 1.953s.154 1.375.463 1.953a3.402 3.402 0 0 0 1.278 1.348c.543.322 1.164.484 1.862.484.697.001 1.318-.161 1.862-.483zm19.417-7.256c.845.973 1.268 2.324 1.268 4.055 0 .27-.007.471-.02.605h-8.415c.147.953.547 1.711 1.197 2.273.651.564 1.453.846 2.406.846.631 0 1.218-.113 1.762-.342a4.245 4.245 0 0 0 1.419-.967l1.026 1.068c-.523.563-1.154 1-1.893 1.309s-1.557.463-2.456.463c-1.047 0-1.976-.225-2.788-.676a4.726 4.726 0 0 1-1.892-1.902c-.45-.818-.675-1.75-.675-2.797s.225-1.977.675-2.789c.449-.813 1.076-1.449 1.882-1.912s1.725-.695 2.758-.695c1.652 0 2.9.486 3.746 1.461zm-.423 3.211c-.054-.967-.376-1.729-.967-2.285s-1.369-.836-2.335-.836c-.939 0-1.722.281-2.346.846-.624.563-.996 1.322-1.117 2.275h6.765zm24.076 6.039v-1.49c-.792 1.047-2.033 1.57-3.724 1.57-.738 0-1.386-.141-1.943-.422-.557-.283-.986-.672-1.288-1.168s-.453-1.055-.453-1.672c0-.953.353-1.707 1.058-2.264.704-.557 1.688-.844 2.949-.855h3.382v-.504c0-.752-.231-1.332-.694-1.742-.464-.408-1.138-.613-2.023-.613-1.074 0-2.168.383-3.281 1.146l-.785-1.287c.765-.496 1.473-.855 2.124-1.078.65-.221 1.426-.332 2.325-.332 1.328 0 2.354.326 3.08.977.725.652 1.093 1.561 1.106 2.729l.021 7.006h-1.854zm-1.117-2.103c.611-.424.977-.984 1.098-1.682v-1.066h-3.12c-.846 0-1.474.127-1.883.383-.409.254-.614.656-.614 1.207s.208.986.624 1.309.974.482 1.671.482c.872-.001 1.614-.212 2.224-.633zm18.914-7.922c.778.455 1.382 1.094 1.812 1.912s.645 1.758.645 2.818c0 1.047-.212 1.977-.635 2.787a4.6 4.6 0 0 1-1.791 1.893c-.772.451-1.654.676-2.647.676-.899 0-1.691-.188-2.376-.564a4.026 4.026 0 0 1-1.61-1.611v6.02h-1.872v-14.555h1.872v2.113c.39-.697.923-1.234 1.601-1.609s1.46-.564 2.346-.564c.99-.002 1.877.227 2.655.684zm-1.178 7.97a3.325 3.325 0 0 0 1.268-1.348c.303-.578.453-1.229.453-1.953 0-.711-.154-1.355-.463-1.932a3.414 3.414 0 0 0-1.269-1.35c-.536-.322-1.147-.482-1.831-.482-.685 0-1.299.16-1.843.482-.543.322-.97.771-1.278 1.35a4.024 4.024 0 0 0-.463 1.932c0 .738.154 1.393.463 1.963s.735 1.016 1.278 1.338a3.549 3.549 0 0 0 1.843.484 3.529 3.529 0 0 0 1.842-.484zm17.534-7.97a4.91 4.91 0 0 1 1.933 1.902c.464.813.695 1.74.695 2.787s-.231 1.98-.695 2.799a4.89 4.89 0 0 1-1.933 1.912c-.825.457-1.768.686-2.828.686-1.074 0-2.023-.229-2.849-.686a4.917 4.917 0 0 1-1.933-1.902c-.463-.811-.694-1.748-.694-2.809 0-1.047.231-1.975.694-2.787s1.107-1.447 1.933-1.902c.825-.457 1.774-.686 2.849-.686 1.06 0 2.002.229 2.828.686zm-4.691 1.429a3.33 3.33 0 0 0-1.268 1.338c-.303.57-.453 1.219-.453 1.943 0 .738.15 1.395.453 1.973a3.262 3.262 0 0 0 1.268 1.338c.544.316 1.164.473 1.862.473.685 0 1.299-.156 1.842-.473a3.252 3.252 0 0 0 1.269-1.338c.302-.578.453-1.234.453-1.973 0-.725-.151-1.373-.453-1.943s-.725-1.018-1.269-1.338a3.543 3.543 0 0 0-1.842-.484c-.698 0-1.318.162-1.862.484zm18.319-.343a5.26 5.26 0 0 0-1.52-.24c-.564 0-1.017.104-1.359.311-.342.209-.514.527-.514.957s.191.756.574.977.963.445 1.741.674c.738.215 1.342.43 1.812.645s.869.531 1.198.945c.329.418.493.967.493 1.652 0 1.006-.379 1.771-1.138 2.295-.758.523-1.701.785-2.828.785a7.09 7.09 0 0 1-2.305-.383c-.745-.256-1.373-.617-1.883-1.088l.705-1.369c.442.402.989.725 1.641.967.65.242 1.285.363 1.902.363s1.113-.115 1.489-.344c.376-.227.563-.576.563-1.047 0-.482-.197-.844-.594-1.086-.396-.242-.996-.484-1.802-.725-.711-.201-1.292-.406-1.741-.615a3.068 3.068 0 0 1-1.147-.916c-.315-.402-.473-.926-.473-1.57 0-.992.362-1.736 1.087-2.234.725-.496 1.631-.744 2.718-.744.645 0 1.278.09 1.902.271s1.164.426 1.62.734l-.684 1.43a6.35 6.35 0 0 0-1.457-.645zm14.646 8.234c-.818.523-1.65.785-2.496.785s-1.529-.252-2.053-.756c-.523-.502-.785-1.264-.785-2.283v-5.898h-1.51v-1.43h1.51v-2.859h1.892v2.859h3.262v1.43h-3.262v5.555c0 .592.107 1.014.322 1.27.215.254.537.383.967.383.51 0 1.06-.168 1.65-.504l.503 1.448zm12.803.705v-1.49c-.792 1.047-2.033 1.57-3.724 1.57-.738 0-1.386-.141-1.943-.422-.557-.283-.986-.672-1.288-1.168s-.453-1.055-.453-1.672c0-.953.353-1.707 1.058-2.264.704-.557 1.688-.844 2.949-.855h3.382v-.504c0-.752-.231-1.332-.694-1.742-.464-.408-1.138-.613-2.023-.613-1.074 0-2.168.383-3.281 1.146l-.785-1.287c.765-.496 1.473-.855 2.124-1.078.65-.221 1.426-.332 2.325-.332 1.328 0 2.354.326 3.08.977.725.652 1.093 1.561 1.106 2.729l.021 7.006h-1.854zm-1.118-2.103c.611-.424.977-.984 1.098-1.682v-1.066h-3.12c-.846 0-1.474.127-1.883.383-.409.254-.614.656-.614 1.207s.208.986.624 1.309.974.482 1.671.482c.873-.001 1.614-.212 2.224-.633zm14.697-6.836a5.26 5.26 0 0 0-1.52-.24c-.564 0-1.017.104-1.359.311-.342.209-.514.527-.514.957s.191.756.574.977.963.445 1.741.674c.738.215 1.342.43 1.812.645s.869.531 1.198.945c.329.418.493.967.493 1.652 0 1.006-.379 1.771-1.138 2.295-.758.523-1.701.785-2.828.785a7.09 7.09 0 0 1-2.305-.383c-.745-.256-1.373-.617-1.883-1.088l.705-1.369c.442.402.989.725 1.641.967.65.242 1.285.363 1.902.363s1.113-.115 1.489-.344c.376-.227.563-.576.563-1.047 0-.482-.197-.844-.594-1.086-.396-.242-.996-.484-1.802-.725-.711-.201-1.292-.406-1.741-.615a3.068 3.068 0 0 1-1.147-.916c-.315-.402-.473-.926-.473-1.57 0-.992.362-1.736 1.087-2.234.725-.496 1.631-.744 2.718-.744.645 0 1.278.09 1.902.271s1.164.426 1.62.734l-.684 1.43a6.388 6.388 0 0 0-1.457-.645z" fill="#58595B"/></svg>