<svg xmlns="http://www.w3.org/2000/svg" width="500" height="150"><path fill="#4A494A" d="M50.401 80.149H45.59c-8.218 0-12.326-2.491-12.326-7.473 0-2.25 1.273-4.101 3.82-5.551 2.546-1.447 6.366-2.173 11.46-2.173 3.573 0 6.895.415 9.962 1.244 3.066.832 5.6 2.021 7.598 3.566l-2.405 1.857c-3.519-2.42-8.568-3.63-15.153-3.63-4.221 0-7.316.437-9.286 1.308-1.97.873-2.955 1.999-2.955 3.377 0 1.604.689 2.744 2.068 3.42s3.785 1.014 7.219 1.014h4.813c7.822 0 13.857 1.779 18.107 5.34 4.249 3.561 6.374 8.322 6.374 14.289 0 2.729-.604 5.289-1.814 7.681-1.211 2.394-2.948 4.496-5.214 6.313-2.266 1.813-5.156 3.25-8.675 4.305-3.518 1.055-7.429 1.582-11.733 1.582-5.432 0-10.511-.822-15.237-2.469-4.728-1.647-8.668-3.947-11.819-6.9l2.448-1.816c2.87 2.59 6.458 4.596 10.764 6.016 4.307 1.423 8.92 2.132 13.846 2.132 7.599 0 13.563-1.604 17.896-4.812 4.333-3.209 6.5-7.219 6.5-12.029 0-5.096-1.855-9.133-5.571-12.115-3.716-2.981-9.008-4.476-15.876-4.476zm0 12.158H45.59c-7.824 0-13.859-1.779-18.108-5.341-4.25-3.559-6.374-8.321-6.374-14.288 0-2.729.604-5.289 1.815-7.682 1.209-2.392 2.947-4.495 5.213-6.311 2.265-1.814 5.156-3.25 8.674-4.307 3.519-1.055 7.43-1.582 11.734-1.582 5.431 0 10.511.822 15.238 2.47 4.728 1.646 8.667 3.946 11.817 6.9l-2.448 1.814c-2.869-2.588-6.458-4.594-10.764-6.016-4.305-1.42-8.92-2.131-13.845-2.131-7.598 0-13.563 1.604-17.896 4.813-4.334 3.208-6.501 7.218-6.501 12.028 0 5.096 1.857 9.134 5.572 12.115 3.714 2.982 9.004 4.475 15.871 4.475h4.643c8.329 0 12.494 2.49 12.494 7.473 0 2.25-1.272 4.101-3.819 5.552-2.548 1.448-6.366 2.172-11.46 2.172-3.573 0-6.896-.414-9.962-1.244s-5.601-2.021-7.598-3.567l2.405-1.855c3.518 2.42 8.569 3.629 15.153 3.629 4.222 0 7.315-.436 9.286-1.309 1.97-.871 2.954-1.998 2.954-3.375 0-1.605-.688-2.744-2.067-3.42s-3.782-1.013-7.216-1.013zm0-6.078H45.59c-5.91 0-10.455-1.203-13.635-3.608-3.181-2.407-4.771-5.721-4.771-9.941 0-3.938 1.871-7.224 5.614-9.855 3.742-2.629 8.99-3.945 15.744-3.945 4.502 0 8.702.619 12.601 1.857 3.896 1.237 7.141 2.981 9.729 5.232l-2.363 1.899c-2.308-1.885-5.206-3.348-8.695-4.39-3.489-1.041-7.246-1.563-11.271-1.563-5.938 0-10.477 1.013-13.613 3.039s-4.706 4.601-4.706 7.724c0 3.377 1.288 5.975 3.862 7.788 2.575 1.815 6.409 2.724 11.503 2.724h4.643c5.994 0 10.588 1.203 13.782 3.607 3.192 2.406 4.79 5.721 4.79 9.943 0 3.938-1.871 7.225-5.613 9.854-3.742 2.633-8.99 3.947-15.744 3.947-4.502 0-8.702-.619-12.601-1.857-3.897-1.238-7.141-2.981-9.729-5.231l2.363-1.9c2.308 1.886 5.205 3.349 8.695 4.39 3.489 1.043 7.245 1.563 11.271 1.563 5.938 0 10.475-1.012 13.612-3.039 3.138-2.025 4.706-4.602 4.706-7.723 0-3.377-1.287-5.975-3.86-7.79-2.575-1.819-6.409-2.725-11.503-2.725zm29.381-31.871h3.039v60.784h-3.039V54.358zm6.077 0h3.039v60.784h-3.039V54.358zm6.079 0h3.039v60.784h-3.039V54.358zm6.08 0h3.039v60.784h-3.039V54.358zm37.188 25.791h-4.813c-8.218 0-12.325-2.491-12.325-7.473 0-2.25 1.272-4.101 3.82-5.551 2.546-1.447 6.366-2.173 11.459-2.173 3.574 0 6.896.415 9.962 1.244 3.067.832 5.601 2.021 7.599 3.566l-2.405 1.857c-3.52-2.42-8.569-3.63-15.154-3.63-4.221 0-7.315.437-9.286 1.308-1.97.873-2.954 1.999-2.954 3.377 0 1.604.688 2.744 2.068 3.42 1.378.676 3.784 1.014 7.218 1.014h4.813c7.823 0 13.858 1.779 18.107 5.34s6.374 8.322 6.374 14.289c0 2.729-.604 5.289-1.814 7.681-1.21 2.394-2.948 4.496-5.213 6.313-2.267 1.813-5.157 3.25-8.675 4.305-3.519 1.055-7.43 1.582-11.733 1.582-5.432 0-10.511-.822-15.238-2.469-4.727-1.647-8.668-3.947-11.818-6.9l2.447-1.816c2.871 2.59 6.459 4.596 10.765 6.016 4.306 1.423 8.921 2.132 13.846 2.132 7.598 0 13.563-1.604 17.896-4.812 4.333-3.209 6.501-7.219 6.501-12.029 0-5.096-1.856-9.133-5.571-12.115-3.719-2.982-9.01-4.476-15.876-4.476zm0 12.158h-4.813c-7.822 0-13.858-1.779-18.107-5.341-4.249-3.559-6.374-8.321-6.374-14.288 0-2.729.604-5.289 1.814-7.682 1.21-2.392 2.947-4.495 5.213-6.311 2.266-1.814 5.156-3.25 8.675-4.307 3.518-1.055 7.43-1.582 11.733-1.582 5.432 0 10.511.822 15.238 2.47 4.728 1.646 8.667 3.946 11.819 6.9l-2.448 1.814c-2.871-2.588-6.459-4.594-10.765-6.016-4.306-1.42-8.921-2.131-13.846-2.131-7.598 0-13.563 1.604-17.896 4.813-4.334 3.208-6.501 7.218-6.501 12.028 0 5.096 1.856 9.134 5.571 12.115 3.714 2.982 9.005 4.475 15.871 4.475h4.644c8.33 0 12.494 2.49 12.494 7.473 0 2.25-1.273 4.101-3.82 5.552-2.547 1.448-6.366 2.172-11.459 2.172-3.574 0-6.896-.414-9.962-1.244-3.067-.83-5.602-2.021-7.599-3.567l2.405-1.855c3.519 2.42 8.569 3.629 15.154 3.629 4.221 0 7.314-.436 9.286-1.309 1.969-.871 2.954-1.998 2.954-3.375 0-1.605-.689-2.744-2.068-3.42s-3.779-1.013-7.213-1.013zm0-6.078h-4.813c-5.91 0-10.454-1.203-13.634-3.608-3.181-2.407-4.771-5.721-4.771-9.941 0-3.938 1.87-7.224 5.613-9.855 3.742-2.629 8.991-3.945 15.744-3.945 4.502 0 8.702.619 12.602 1.857 3.896 1.237 7.14 2.981 9.729 5.232l-2.364 1.899c-2.308-1.885-5.206-3.348-8.694-4.39-3.489-1.041-7.246-1.563-11.271-1.563-5.938 0-10.476 1.013-13.612 3.039-3.139 2.026-4.706 4.601-4.706 7.724 0 3.377 1.287 5.975 3.861 7.788 2.575 1.815 6.409 2.724 11.503 2.724h4.644c5.994 0 10.588 1.203 13.781 3.607 3.193 2.406 4.791 5.721 4.791 9.943 0 3.938-1.871 7.225-5.613 9.854-3.743 2.633-8.991 3.947-15.744 3.947-4.503 0-8.703-.619-12.602-1.857-3.897-1.238-7.141-2.981-9.729-5.231l2.364-1.9c2.307 1.886 5.206 3.349 8.694 4.39 3.489 1.043 7.246 1.563 11.271 1.563 5.937 0 10.474-1.012 13.612-3.039 3.138-2.025 4.705-4.602 4.705-7.723 0-3.377-1.286-5.975-3.86-7.79-2.573-1.819-6.408-2.725-11.501-2.725z"/><path fill="#45B47D" d="M212.199 84.412l-.084-.041c3.18-3.096 4.77-6.866 4.77-11.313 0-4.222-1.569-7.887-4.707-10.997-3.138-3.108-6.845-4.663-11.122-4.663h-33.431v57.744h-3.039V54.358h36.47c3.32 0 6.438.853 9.351 2.554 2.912 1.704 5.228 3.997 6.943 6.881 1.717 2.886 2.574 5.974 2.574 9.267 0 4.502-1.21 8.37-3.63 11.606 2.42 3.35 3.63 7.035 3.63 11.061 0 3.855-.871 7.254-2.616 10.193-1.745 2.941-4.032 5.156-6.858 6.648-2.829 1.49-5.959 2.235-9.394 2.235h-19.205v-3.038h19.205c4.334 0 8.055-1.539 11.165-4.623 3.109-3.08 4.664-6.886 4.664-11.416 0-2.082-.45-4.14-1.351-6.166-.901-2.024-2.026-3.728-3.377-5.105 0-.027.014-.043.042-.043zm-11.143 21.276h-19.205v3.039h19.205c3.489 0 6.493-1.246 9.012-3.733 2.52-2.492 3.778-5.58 3.778-9.267 0-2.336-.627-4.539-1.878-6.606-1.253-2.069-2.906-3.665-4.96-4.791 2.054-1.068 3.707-2.597 4.96-4.58 1.251-1.983 1.878-4.214 1.878-6.688 0-3.377-1.272-6.324-3.819-8.845-2.548-2.518-5.536-3.776-8.971-3.776h-30.391v54.705h3.039V63.478h27.352c2.589 0 4.861.964 6.817 2.891 1.955 1.929 2.934 4.158 2.934 6.691 0 2.813-.957 5.127-2.87 6.942-1.914 1.814-4.207 2.723-6.881 2.723h-19.205v3.038h19.205c2.589 0 4.861 1 6.817 2.998 1.955 1.999 2.934 4.319 2.934 6.966 0 2.926-.957 5.316-2.87 7.174-1.916 1.857-4.208 2.787-6.881 2.787zm0-29.042h-19.205v3.039h19.205c1.886 0 3.477-.598 4.771-1.793 1.294-1.196 1.94-2.809 1.94-4.833 0-1.718-.676-3.236-2.025-4.56-1.352-1.323-2.912-1.983-4.687-1.983h-24.313v48.626h3.039V69.555h21.272c.957 0 1.809.358 2.555 1.076.744.718 1.118 1.526 1.118 2.429 0 1.153-.353 2.04-1.056 2.657-.7.62-1.573.929-2.614.929zm0 22.963h-19.205v3.039h19.205c1.857 0 3.44-.627 4.749-1.877 1.31-1.254 1.963-2.937 1.963-5.045 0-1.83-.676-3.441-2.025-4.834-1.352-1.396-2.912-2.092-4.687-2.092h-19.247v3.04h19.247c.957 0 1.809.396 2.555 1.185.744.787 1.118 1.688 1.118 2.701 0 1.235-.353 2.194-1.056 2.868-.703.677-1.576 1.015-2.617 1.015zm25.159-1.877c-1.772-4.123-2.658-8.451-2.658-12.981 0-4.529.886-8.855 2.658-12.979 1.773-4.122 4.151-7.676 7.135-10.658 2.981-2.982 6.535-5.36 10.657-7.133 4.122-1.773 8.447-2.66 12.98-2.66 4.529 0 8.855.888 12.978 2.66 4.124 1.771 7.677 4.149 10.66 7.133 2.981 2.982 5.358 6.536 7.134 10.658a32.547 32.547 0 0 1 2.659 12.979c0 4.53-.888 8.858-2.659 12.981-1.773 4.121-4.152 7.674-7.134 10.656-2.983 2.982-6.536 5.361-10.66 7.133-4.12 1.773-8.448 2.66-12.978 2.66-4.533 0-8.858-.887-12.98-2.66-4.122-1.771-7.676-4.149-10.657-7.133-2.984-2.982-5.362-6.534-7.135-10.656zm2.786-24.78a29.743 29.743 0 0 0-2.405 11.798c0 4.108.802 8.041 2.405 11.799s3.764 6.992 6.479 9.709c2.717 2.715 5.951 4.875 9.709 6.479a29.734 29.734 0 0 0 11.799 2.406c4.107 0 8.039-.803 11.796-2.406 3.759-1.604 6.993-3.764 9.71-6.479 2.715-2.717 4.875-5.951 6.479-9.709a29.746 29.746 0 0 0 2.407-11.799c0-4.106-.803-8.041-2.407-11.798-1.604-3.756-3.764-6.992-6.479-9.708-2.717-2.715-5.951-4.875-9.71-6.479a29.735 29.735 0 0 0-11.796-2.407c-4.109 0-8.043.803-11.799 2.407-3.758 1.604-6.992 3.764-9.709 6.479-2.715 2.716-4.876 5.952-6.479 9.708zm2.807 22.437c-1.449-3.377-2.173-6.924-2.173-10.639s.724-7.26 2.173-10.637 3.392-6.282 5.825-8.716c2.434-2.435 5.341-4.375 8.718-5.825a26.7 26.7 0 0 1 10.638-2.174 26.7 26.7 0 0 1 10.638 2.174c3.377 1.45 6.281 3.392 8.715 5.825s4.376 5.339 5.826 8.716c1.447 3.377 2.174 6.922 2.174 10.637s-.727 7.262-2.174 10.639c-1.45 3.377-3.395 6.281-5.826 8.715-2.434 2.437-5.338 4.377-8.715 5.826a26.666 26.666 0 0 1-10.638 2.174c-3.714 0-7.262-.723-10.638-2.174-3.377-1.449-6.283-3.391-8.718-5.826-2.435-2.434-4.376-5.338-5.825-8.715zm2.786-20.073c-1.28 2.998-1.92 6.143-1.92 9.435s.64 6.438 1.92 9.437c1.28 2.996 3.012 5.586 5.192 7.768 2.18 2.18 4.77 3.91 7.767 5.189a23.775 23.775 0 0 0 9.436 1.922c3.292 0 6.438-.642 9.433-1.922 2.997-1.279 5.585-3.011 7.768-5.189 2.181-2.182 3.91-4.771 5.191-7.768 1.281-2.998 1.922-6.145 1.922-9.437s-.641-6.437-1.922-9.435c-1.281-2.996-3.012-5.584-5.191-7.768-2.183-2.18-4.771-3.908-7.768-5.189a23.76 23.76 0 0 0-9.433-1.921c-3.294 0-6.438.641-9.436 1.921-2.997 1.281-5.587 3.011-7.767 5.189-2.182 2.184-3.912 4.771-5.192 7.768zm3.967 20.114c-1.898-3.264-2.849-6.823-2.849-10.68 0-3.854.949-7.414 2.849-10.679a21.058 21.058 0 0 1 7.746-7.745c3.265-1.9 6.822-2.85 10.681-2.85 3.854 0 7.412.948 10.679 2.85 3.265 1.898 5.845 4.479 7.746 7.745 1.899 3.265 2.851 6.824 2.851 10.679 0 3.855-.951 7.416-2.851 10.68-1.901 3.266-4.481 5.848-7.746 7.746-3.267 1.898-6.825 2.85-10.679 2.85-3.857 0-7.416-.951-10.681-2.85-3.264-1.899-5.845-4.481-7.746-7.746zm5.531-23.553c-3.561 3.573-5.34 7.864-5.34 12.873 0 5.01 1.779 9.303 5.34 12.875 3.56 3.574 7.856 5.361 12.896 5.361 5.034 0 9.335-1.787 12.895-5.361 3.56-3.572 5.341-7.865 5.341-12.875 0-5.009-1.781-9.3-5.341-12.873s-7.858-5.36-12.895-5.36c-5.04 0-9.338 1.787-12.896 5.36zm2.152 23.615c-2.97-2.967-4.453-6.549-4.453-10.742 0-4.191 1.483-7.771 4.453-10.742 2.968-2.969 6.548-4.453 10.743-4.453 4.191 0 7.771 1.484 10.74 4.453 2.971 2.971 4.455 6.551 4.455 10.742 0 4.193-1.484 7.775-4.455 10.742-2.97 2.971-6.549 4.455-10.74 4.455-4.195 0-7.775-1.484-10.743-4.455zm2.152-19.332c-2.379 2.379-3.566 5.242-3.566 8.59 0 3.35 1.188 6.213 3.566 8.592 2.377 2.377 5.239 3.566 8.591 3.566 3.347 0 6.211-1.189 8.588-3.566 2.378-2.379 3.568-5.242 3.568-8.592 0-3.348-1.19-6.211-3.568-8.59-2.377-2.377-5.241-3.566-8.588-3.566-3.349 0-6.214 1.189-8.591 3.566zm47.087-21.802h3.039v60.784h-3.039V54.358zm6.079 0h3.039v60.784h-3.039V54.358zm6.078 0h3.039v60.784h-3.039V54.358zm6.08 0h3.038v45.589h22.414v3.039h-22.414v3.039h22.414v3.039h-22.414v3.039h22.414v3.039H313.72V54.358zm94.847 30.814v29.971h-3.039V85.172c0-5.739-1.34-10.869-4.012-15.385-2.674-4.518-6.317-8.005-10.933-10.468-4.616-2.463-9.765-3.694-15.448-3.694-5.459 0-10.455 1.311-14.984 3.927-4.53 2.616-8.09 6.155-10.678 10.614-2.592 4.462-3.885 9.322-3.885 14.584 0 3.461.555 6.748 1.665 9.857 1.113 3.108 2.634 5.826 4.56 8.145a31.305 31.305 0 0 0 6.67 6.018 30.069 30.069 0 0 0 8.146 3.842 30.858 30.858 0 0 0 8.887 1.308c3.318 0 6.473-.633 9.455-1.899v3.125a28.823 28.823 0 0 1-9.623 1.646c-3.408 0-6.72-.479-9.94-1.437-3.224-.957-6.206-2.371-8.949-4.242s-5.157-4.08-7.239-6.627c-2.084-2.545-3.715-5.521-4.896-8.928-1.183-3.404-1.771-7.008-1.771-10.807 0-4.361.82-8.519 2.467-12.474 1.646-3.952 3.897-7.371 6.754-10.256 2.857-2.886 6.316-5.179 10.386-6.882 4.065-1.7 8.391-2.554 12.979-2.554 4.67 0 9.06.789 13.17 2.364 4.106 1.576 7.652 3.764 10.637 6.563 2.98 2.802 5.332 6.24 7.048 10.32 1.713 4.083 2.573 8.528 2.573 13.34zm-6.078 0v29.971h-3.039V85.172c0-4.643-1.063-8.759-3.188-12.346-2.125-3.589-5.031-6.339-8.718-8.252s-7.823-2.871-12.409-2.871c-4.363 0-8.345 1.034-11.945 3.104-3.604 2.066-6.422 4.86-8.463 8.378-2.043 3.518-3.061 7.373-3.061 11.564 0 3.604.659 6.889 1.982 9.857 1.322 2.967 3.104 5.41 5.341 7.321 2.235 1.914 4.782 3.4 7.639 4.455 2.856 1.056 5.849 1.582 8.97 1.582 3.182 0 6.303-.66 9.373-1.983v3.082c-3.209 1.209-6.361 1.813-9.455 1.813-4.869 0-9.346-1.099-13.425-3.293-4.079-2.192-7.344-5.304-9.793-9.326-2.446-4.024-3.671-8.528-3.671-13.51 0-3.546.68-6.923 2.047-10.131 1.365-3.208 3.213-5.979 5.551-8.314 2.334-2.336 5.148-4.192 8.442-5.57 3.291-1.379 6.779-2.069 10.468-2.069 5.148 0 9.799 1.098 13.949 3.293 4.152 2.194 7.422 5.318 9.813 9.37 2.392 4.053 3.592 8.669 3.592 13.846zM364.5 31.818h21.229v3.039H364.5c-.901 0-1.584.009-2.049.021-.463.016-1.104.059-1.92.127-.816.07-1.45.176-1.898.316-.45.142-1.007.352-1.668.633-.661.282-1.182.62-1.562 1.013a14.1 14.1 0 0 0-1.246 1.521 6.647 6.647 0 0 0-1.014 2.11c-.225.787-.414 1.724-.568 2.807-.155 1.085-.23 2.287-.23 3.608h-3.039c0-1.632.109-3.13.338-4.494.224-1.365.506-2.54.844-3.525a9.018 9.018 0 0 1 1.412-2.638c.604-.773 1.176-1.406 1.709-1.9.535-.491 1.225-.913 2.068-1.266a20.287 20.287 0 0 1 2.153-.781c.592-.169 1.364-.302 2.321-.401a33.583 33.583 0 0 1 2.216-.168 88.053 88.053 0 0 1 2.133-.022zm31.911 53.354v29.971h-3.039V85.172c0-5.317-1.705-9.545-5.109-12.684-3.404-3.138-7.779-4.707-13.125-4.707-4.955 0-9.093 1.646-12.41 4.938-3.321 3.292-4.98 7.303-4.98 12.029 0 2.87.498 5.444 1.497 7.726.999 2.28 2.356 4.108 4.075 5.487a18.662 18.662 0 0 0 5.762 3.146c2.123.717 4.368 1.074 6.732 1.074 3.207 0 6.259-.744 9.158-2.236v3.209c-3.039 1.265-6.107 1.898-9.203 1.898-2.785 0-5.431-.428-7.936-1.289-2.505-.857-4.741-2.109-6.71-3.756-1.972-1.646-3.534-3.783-4.687-6.416-1.153-2.631-1.729-5.579-1.729-8.844 0-5.543 1.962-10.264 5.887-14.162 3.927-3.896 8.772-5.846 14.544-5.846 4.053 0 7.682.824 10.889 2.47 3.209 1.646 5.74 4.031 7.599 7.154 1.855 3.127 2.785 6.729 2.785 10.809zm-4.601-53.354h3.039c0 1.267-.121 2.393-.358 3.377-.238.984-.534 1.794-.886 2.428a4.993 4.993 0 0 1-1.414 1.604c-.592.438-1.119.767-1.584.991-.465.226-1.055.396-1.771.508-.72.111-1.261.176-1.626.188a36.47 36.47 0 0 1-1.478.021h-21.23c-.818 0-1.43.016-1.836.043-.41.027-.938.146-1.585.357s-1.126.515-1.435.908c-.311.396-.592.991-.844 1.794-.255.801-.38 1.793-.38 2.977h-3.038c0-1.268.117-2.393.357-3.378.238-.983.533-1.794.886-2.428a5.013 5.013 0 0 1 1.413-1.604c.593-.437 1.119-.767 1.585-.991.462-.227 1.056-.396 1.771-.507.717-.112 1.259-.176 1.627-.19.365-.013.856-.021 1.478-.021h21.229c.816 0 1.43-.015 1.836-.041.408-.028.936-.148 1.586-.36.645-.21 1.123-.512 1.434-.906.311-.394.592-.991.844-1.795.255-.8.38-1.793.38-2.975zm-4.516 53.354c0-3.601-1.111-6.387-3.336-8.356-2.225-1.971-5.164-2.955-8.82-2.955-3.098 0-5.758 1.069-7.979 3.208-2.224 2.14-3.332 4.7-3.332 7.683 0 1.688.224 3.202.675 4.538.449 1.337 1.063 2.447 1.834 3.335a9.718 9.718 0 0 0 2.768 2.192c1.067.58 2.188.994 3.354 1.248a17.67 17.67 0 0 0 3.735.379c3.207 0 6.134-.787 8.779-2.362v3.039c-2.73 1.436-5.67 2.151-8.82 2.151-2.026 0-3.936-.274-5.721-.822a15.499 15.499 0 0 1-4.875-2.491c-1.465-1.108-2.625-2.629-3.483-4.56-.857-1.927-1.286-4.144-1.286-6.647 0-3.884 1.361-7.176 4.095-9.877 2.729-2.702 6.147-4.053 10.257-4.053 4.529 0 8.195 1.273 10.996 3.82 2.799 2.548 4.2 6.058 4.2 10.53v29.971h-3.039l-.002-29.971zm10.594-53.354h3.039c0 1.633-.113 3.132-.339 4.495-.224 1.365-.506 2.541-.844 3.524a9.024 9.024 0 0 1-1.413 2.639c-.605.773-1.175 1.407-1.71 1.898-.536.493-1.224.915-2.067 1.268s-1.563.611-2.152.78c-.592.168-1.367.304-2.322.4-.957.1-1.695.155-2.216.169-.521.016-1.232.021-2.132.021h-21.23v-3.038h21.23c.898 0 1.584-.007 2.047-.021a36.039 36.039 0 0 0 1.922-.127c.814-.069 1.447-.175 1.898-.315a19.154 19.154 0 0 0 1.668-.634c.66-.281 1.182-.619 1.562-1.014.379-.394.795-.899 1.246-1.521a6.716 6.716 0 0 0 1.013-2.109c.225-.787.414-1.724.569-2.808.153-1.079.231-2.282.231-3.607zm17.519 65.914c-1.774-4.123-2.66-8.451-2.66-12.981 0-4.529.886-8.855 2.66-12.979 1.771-4.122 4.148-7.676 7.133-10.658 2.981-2.982 6.536-5.36 10.657-7.133a32.527 32.527 0 0 1 12.979-2.66c4.531 0 8.855.888 12.979 2.66 4.122 1.771 7.675 4.149 10.658 7.133 2.98 2.982 5.36 6.536 7.133 10.658 1.773 4.123 2.66 8.449 2.66 12.979 0 4.53-.887 8.858-2.66 12.981-1.771 4.121-4.151 7.674-7.133 10.656-2.983 2.982-6.536 5.361-10.658 7.133a32.514 32.514 0 0 1-12.979 2.66c-4.53 0-8.857-.887-12.979-2.66-4.121-1.771-7.676-4.149-10.657-7.133-2.982-2.982-5.361-6.534-7.133-10.656zm2.783-24.78a29.759 29.759 0 0 0-2.404 11.798c0 4.108.803 8.041 2.404 11.799 1.605 3.758 3.765 6.992 6.48 9.709 2.716 2.715 5.951 4.875 9.708 6.479a29.733 29.733 0 0 0 11.798 2.406 29.76 29.76 0 0 0 11.798-2.406c3.757-1.603 6.992-3.764 9.707-6.479 2.717-2.717 4.876-5.951 6.48-9.709a29.745 29.745 0 0 0 2.406-11.799c0-4.106-.804-8.041-2.406-11.798-1.604-3.756-3.765-6.992-6.48-9.708-2.715-2.715-5.95-4.875-9.707-6.479a29.737 29.737 0 0 0-11.798-2.407c-4.109 0-8.042.803-11.798 2.407-3.757 1.604-6.992 3.764-9.708 6.479-2.715 2.716-4.873 5.952-6.48 9.708zm2.809 22.437c-1.45-3.377-2.174-6.924-2.174-10.639s.724-7.26 2.174-10.637c1.448-3.377 3.391-6.282 5.824-8.716 2.436-2.435 5.341-4.375 8.718-5.825a26.692 26.692 0 0 1 10.637-2.174c3.714 0 7.261.725 10.638 2.174 3.377 1.45 6.281 3.392 8.718 5.825 2.433 2.434 4.373 5.339 5.823 8.716 1.449 3.377 2.174 6.922 2.174 10.637s-.725 7.262-2.174 10.639c-1.45 3.377-3.392 6.281-5.823 8.715-2.437 2.437-5.341 4.377-8.718 5.826a26.67 26.67 0 0 1-10.638 2.174c-3.715 0-7.261-.723-10.637-2.174-3.377-1.449-6.282-3.391-8.718-5.826-2.433-2.434-4.376-5.338-5.824-8.715zm2.785-20.073c-1.279 2.998-1.92 6.143-1.92 9.435s.641 6.438 1.92 9.437c1.281 2.996 3.012 5.586 5.191 7.768 2.182 2.18 4.771 3.91 7.768 5.189a23.778 23.778 0 0 0 9.435 1.922c3.291 0 6.438-.642 9.435-1.922 2.998-1.279 5.586-3.011 7.768-5.189 2.181-2.182 3.911-4.771 5.192-7.768 1.277-2.998 1.919-6.145 1.919-9.437s-.642-6.437-1.919-9.435c-1.281-2.996-3.013-5.584-5.192-7.768-2.182-2.18-4.77-3.908-7.768-5.189a23.784 23.784 0 0 0-9.435-1.921c-3.294 0-6.437.641-9.435 1.921-2.997 1.281-5.586 3.011-7.768 5.189-2.179 2.184-3.91 4.771-5.191 7.768zm3.969 20.114c-1.897-3.264-2.85-6.823-2.85-10.68 0-3.854.951-7.414 2.85-10.679a21.043 21.043 0 0 1 7.746-7.745c3.264-1.9 6.823-2.85 10.679-2.85s7.415.948 10.68 2.85c3.263 1.898 5.847 4.479 7.744 7.745 1.899 3.265 2.851 6.824 2.851 10.679 0 3.855-.95 7.416-2.851 10.68-1.897 3.266-4.481 5.848-7.744 7.746-3.265 1.898-6.823 2.85-10.68 2.85-3.855 0-7.415-.951-10.679-2.85a21.06 21.06 0 0 1-7.746-7.746zm5.53-23.553c-3.563 3.573-5.341 7.864-5.341 12.873 0 5.01 1.778 9.303 5.341 12.875 3.56 3.574 7.855 5.361 12.895 5.361 5.037 0 9.335-1.787 12.896-5.361 3.56-3.572 5.34-7.865 5.34-12.875 0-5.009-1.78-9.3-5.34-12.873-3.561-3.573-7.857-5.36-12.896-5.36s-9.335 1.787-12.895 5.36zm2.153 23.615c-2.969-2.967-4.453-6.549-4.453-10.742 0-4.191 1.484-7.771 4.453-10.742 2.97-2.969 6.55-4.453 10.742-4.453 4.193 0 7.773 1.484 10.743 4.453 2.968 2.971 4.452 6.551 4.452 10.742 0 4.193-1.484 7.775-4.452 10.742-2.97 2.971-6.55 4.455-10.743 4.455-4.193 0-7.774-1.484-10.742-4.455zm2.152-19.332c-2.378 2.379-3.565 5.242-3.565 8.59 0 3.35 1.188 6.213 3.565 8.592 2.377 2.377 5.24 3.566 8.59 3.566s6.212-1.189 8.59-3.566c2.379-2.379 3.566-5.242 3.566-8.592 0-3.348-1.188-6.211-3.566-8.59-2.378-2.377-5.24-3.566-8.59-3.566s-6.213 1.189-8.59 3.566z"/></svg>