<?xml version="1.0" encoding="utf-8"?>
<!-- Generator: Adobe Illustrator 16.0.0, SVG Export Plug-In . SVG Version: 6.00 Build 0)  -->
<!DOCTYPE svg PUBLIC "-//W3C//DTD SVG 1.1//EN" "http://www.w3.org/Graphics/SVG/1.1/DTD/svg11.dtd">
<svg version="1.1" id="Layer_1" xmlns="http://www.w3.org/2000/svg" xmlns:xlink="http://www.w3.org/1999/xlink" x="0px" y="0px"
	 width="500px" height="150px" viewBox="0 0 500 150" enable-background="new 0 0 500 150" xml:space="preserve">
<path fill="#4A494A" d="M48.571,66.479H43.76c-8.218,0-12.326-2.491-12.326-7.472c0-2.25,1.273-4.101,3.82-5.551
	c2.546-1.447,6.366-2.173,11.46-2.173c3.573,0,6.895,0.415,9.962,1.244c3.066,0.832,5.6,2.021,7.598,3.567l-2.406,1.857
	c-3.518-2.42-8.568-3.63-15.153-3.63c-4.221,0-7.316,0.437-9.286,1.308c-1.97,0.873-2.955,1.999-2.955,3.377
	c0,1.604,0.689,2.744,2.068,3.42c1.379,0.675,3.785,1.013,7.219,1.013h4.812c7.823,0,13.858,1.78,18.108,5.34
	c4.249,3.561,6.374,8.323,6.374,14.29c0,2.729-0.605,5.289-1.815,7.68c-1.21,2.393-2.948,4.496-5.213,6.313
	c-2.266,1.813-5.157,3.25-8.675,4.305s-7.429,1.582-11.734,1.582c-5.431,0-10.51-0.822-15.237-2.469s-8.668-3.947-11.819-6.9
	l2.448-1.816c2.87,2.59,6.458,4.596,10.764,6.016c4.306,1.422,8.92,2.131,13.845,2.131c7.599,0,13.563-1.604,17.897-4.811
	c4.333-3.209,6.5-7.219,6.5-12.029c0-5.096-1.856-9.134-5.571-12.116S55.438,66.479,48.571,66.479z M48.571,78.637H43.76
	c-7.824,0-13.859-1.779-18.108-5.341c-4.25-3.559-6.374-8.322-6.374-14.288c0-2.729,0.604-5.289,1.815-7.682
	c1.209-2.392,2.947-4.495,5.213-6.311c2.265-1.814,5.156-3.25,8.674-4.306c3.518-1.055,7.429-1.582,11.734-1.582
	c5.431,0,10.511,0.822,15.238,2.469c4.728,1.646,8.667,3.947,11.818,6.901l-2.448,1.814c-2.87-2.588-6.458-4.593-10.764-6.015
	c-4.305-1.42-8.92-2.131-13.845-2.131c-7.598,0-13.563,1.604-17.896,4.812c-4.334,3.208-6.501,7.218-6.501,12.029
	c0,5.095,1.857,9.133,5.572,12.115c3.714,2.982,9.004,4.475,15.871,4.475h4.643c8.329,0,12.494,2.49,12.494,7.473
	c0,2.25-1.273,4.1-3.82,5.551c-2.547,1.449-6.366,2.172-11.46,2.172c-3.573,0-6.895-0.414-9.961-1.244
	c-3.067-0.83-5.601-2.02-7.598-3.568l2.405-1.855c3.518,2.42,8.569,3.629,15.153,3.629c4.222,0,7.316-0.436,9.287-1.309
	c1.969-0.871,2.954-1.998,2.954-3.375c0-1.605-0.689-2.744-2.068-3.42S52.004,78.637,48.571,78.637z M48.571,72.558H43.76
	c-5.91,0-10.455-1.203-13.635-3.608c-3.18-2.407-4.77-5.721-4.77-9.941c0-3.938,1.871-7.224,5.614-9.856
	c3.742-2.629,8.99-3.945,15.744-3.945c4.502,0,8.702,0.619,12.601,1.857c3.896,1.238,7.14,2.982,9.729,5.233l-2.363,1.899
	c-2.308-1.885-5.206-3.348-8.695-4.39c-3.49-1.041-7.246-1.562-11.271-1.562c-5.938,0-10.476,1.013-13.613,3.039
	s-4.706,4.601-4.706,7.724c0,3.377,1.288,5.974,3.862,7.788c2.575,1.815,6.409,2.723,11.503,2.723h4.643
	c5.994,0,10.587,1.203,13.782,3.608c3.192,2.406,4.79,5.721,4.79,9.943c0,3.938-1.871,7.225-5.613,9.854
	c-3.743,2.633-8.991,3.947-15.745,3.947c-4.502,0-8.702-0.619-12.6-1.857s-7.141-2.982-9.729-5.232l2.364-1.9
	c2.307,1.885,5.205,3.348,8.695,4.389c3.489,1.043,7.245,1.563,11.27,1.563c5.938,0,10.475-1.012,13.613-3.039
	c3.137-2.025,4.706-4.602,4.706-7.723c0-3.377-1.287-5.975-3.861-7.79C57.498,73.465,53.664,72.558,48.571,72.558z"/>
<path fill="#4A494A" d="M77.951,40.688h3.039v60.784h-3.039V40.688z M84.029,40.688h3.039v60.784h-3.039V40.688z M90.108,40.688
	h3.039v60.784h-3.039V40.688z M96.187,40.688h3.039v60.784h-3.039V40.688z"/>
<path fill="#4A494A" d="M133.375,66.479h-4.812c-8.218,0-12.325-2.491-12.325-7.472c0-2.25,1.272-4.101,3.82-5.551
	c2.546-1.447,6.366-2.173,11.459-2.173c3.574,0,6.895,0.415,9.962,1.244c3.067,0.832,5.6,2.021,7.598,3.567l-2.405,1.857
	c-3.519-2.42-8.569-3.63-15.154-3.63c-4.221,0-7.316,0.437-9.286,1.308c-1.97,0.873-2.954,1.999-2.954,3.377
	c0,1.604,0.688,2.744,2.068,3.42c1.378,0.675,3.784,1.013,7.218,1.013h4.812c7.823,0,13.859,1.78,18.108,5.34
	c4.249,3.561,6.374,8.323,6.374,14.29c0,2.729-0.605,5.289-1.815,7.68c-1.21,2.393-2.948,4.496-5.213,6.313
	c-2.266,1.813-5.157,3.25-8.674,4.305c-3.519,1.055-7.43,1.582-11.734,1.582c-5.432,0-10.511-0.822-15.238-2.469
	s-8.668-3.947-11.819-6.9l2.448-1.816c2.871,2.59,6.459,4.596,10.764,6.016c4.306,1.422,8.921,2.131,13.846,2.131
	c7.598,0,13.563-1.604,17.896-4.811c4.333-3.209,6.501-7.219,6.501-12.029c0-5.096-1.857-9.134-5.572-12.116
	C145.532,67.972,140.241,66.479,133.375,66.479z M133.375,78.637h-4.812c-7.823,0-13.859-1.779-18.108-5.341
	c-4.249-3.559-6.374-8.322-6.374-14.288c0-2.729,0.605-5.289,1.815-7.682c1.21-2.392,2.947-4.495,5.213-6.311
	c2.265-1.814,5.156-3.25,8.674-4.306c3.518-1.055,7.43-1.582,11.734-1.582c5.431,0,10.511,0.822,15.238,2.469
	c4.728,1.646,8.667,3.947,11.819,6.901l-2.448,1.814c-2.871-2.588-6.459-4.593-10.764-6.015c-4.306-1.42-8.921-2.131-13.846-2.131
	c-7.598,0-13.563,1.604-17.896,4.812c-4.334,3.208-6.501,7.218-6.501,12.029c0,5.095,1.857,9.133,5.572,12.115
	c3.714,2.982,9.005,4.475,15.871,4.475h4.643c8.33,0,12.494,2.49,12.494,7.473c0,2.25-1.273,4.1-3.82,5.551
	c-2.547,1.449-6.366,2.172-11.459,2.172c-3.574,0-6.896-0.414-9.962-1.244c-3.067-0.83-5.601-2.02-7.598-3.568l2.405-1.855
	c3.518,2.42,8.569,3.629,15.154,3.629c4.221,0,7.315-0.436,9.286-1.309c1.969-0.871,2.954-1.998,2.954-3.375
	c0-1.605-0.689-2.744-2.068-3.42S136.809,78.637,133.375,78.637z M133.375,72.558h-4.812c-5.91,0-10.454-1.203-13.634-3.608
	c-3.181-2.407-4.771-5.721-4.771-9.941c0-3.938,1.871-7.224,5.614-9.856c3.742-2.629,8.991-3.945,15.744-3.945
	c4.502,0,8.702,0.619,12.601,1.857c3.896,1.238,7.14,2.982,9.729,5.233l-2.364,1.899c-2.308-1.885-5.206-3.348-8.695-4.39
	c-3.489-1.041-7.246-1.562-11.271-1.562c-5.938,0-10.476,1.013-13.612,3.039c-3.139,2.026-4.707,4.601-4.707,7.724
	c0,3.377,1.288,5.974,3.862,7.788c2.575,1.815,6.409,2.723,11.503,2.723h4.643c5.994,0,10.588,1.203,13.782,3.608
	c3.193,2.406,4.791,5.721,4.791,9.943c0,3.938-1.872,7.225-5.614,9.854c-3.743,2.633-8.991,3.947-15.744,3.947
	c-4.503,0-8.703-0.619-12.601-1.857s-7.141-2.982-9.729-5.232l2.364-1.9c2.307,1.885,5.206,3.348,8.695,4.389
	c3.489,1.043,7.246,1.563,11.271,1.563c5.937,0,10.474-1.012,13.612-3.039c3.138-2.025,4.706-4.602,4.706-7.723
	c0-3.377-1.287-5.975-3.861-7.79C142.303,73.465,138.468,72.558,133.375,72.558z"/>
<path fill="#45B47D" d="M210.368,70.742l-0.084-0.041c3.18-3.096,4.77-6.866,4.77-11.313c0-4.221-1.569-7.886-4.707-10.997
	c-3.138-3.108-6.845-4.663-11.122-4.663h-33.431v57.744h-3.039V40.688h36.47c3.32,0,6.438,0.853,9.35,2.554
	c2.913,1.704,5.228,3.997,6.944,6.881c1.717,2.886,2.574,5.973,2.574,9.266c0,4.502-1.21,8.371-3.63,11.607
	c2.42,3.349,3.63,7.035,3.63,11.061c0,3.855-0.871,7.254-2.616,10.193c-1.745,2.941-4.032,5.156-6.859,6.648
	c-2.829,1.49-5.959,2.236-9.393,2.236H180.02v-3.039h19.205c4.334,0,8.055-1.539,11.165-4.623c3.109-3.08,4.664-6.885,4.664-11.416
	c0-2.082-0.45-4.139-1.351-6.165c-0.901-2.025-2.026-3.728-3.377-5.106C210.326,70.758,210.34,70.742,210.368,70.742z
	 M199.225,92.018H180.02v3.039h19.205c3.489,0,6.493-1.246,9.012-3.734c2.519-2.492,3.778-5.58,3.778-9.266
	c0-2.336-0.627-4.539-1.878-6.607c-1.253-2.069-2.906-3.665-4.96-4.791c2.054-1.068,3.707-2.597,4.96-4.58
	c1.251-1.984,1.878-4.214,1.878-6.689c0-3.377-1.273-6.324-3.819-8.844c-2.548-2.518-5.537-3.777-8.971-3.777h-30.391v54.705h3.039
	V49.807h27.352c2.589,0,4.861,0.964,6.817,2.891c1.955,1.929,2.934,4.158,2.934,6.691c0,2.813-0.957,5.127-2.87,6.943
	c-1.914,1.814-4.207,2.722-6.881,2.722h-9.286h-9.919v3.039h9.919h9.286c2.589,0,4.861,1,6.817,2.998
	c1.955,1.999,2.934,4.319,2.934,6.966c0,2.926-0.957,5.316-2.87,7.174C204.191,91.088,201.898,92.018,199.225,92.018z
	 M199.225,62.976H180.02v3.039h19.205c1.886,0,3.476-0.597,4.771-1.793c1.294-1.196,1.941-2.808,1.941-4.833
	c0-1.717-0.676-3.236-2.026-4.559c-1.351-1.323-2.912-1.984-4.686-1.984h-24.313v48.627h3.039V55.885h21.273
	c0.957,0,1.808,0.358,2.555,1.076c0.744,0.717,1.118,1.526,1.118,2.428c0,1.154-0.353,2.04-1.056,2.658
	C201.139,62.667,200.266,62.976,199.225,62.976z M199.225,85.939H180.02v3.039h19.205c1.857,0,3.44-0.627,4.749-1.877
	c1.309-1.254,1.963-2.936,1.963-5.045c0-1.83-0.676-3.441-2.026-4.834c-1.351-1.395-2.912-2.091-4.686-2.091h-19.247v3.04h19.247
	c0.957,0,1.808,0.395,2.555,1.184c0.744,0.787,1.118,1.688,1.118,2.701c0,1.236-0.353,2.195-1.056,2.869
	C201.139,85.602,200.266,85.939,199.225,85.939z"/>
<path fill="#45B47D" d="M224.384,84.063c-1.772-4.123-2.658-8.451-2.658-12.982c0-4.529,0.886-8.856,2.658-12.979
	c1.773-4.122,4.151-7.675,7.135-10.658c2.981-2.982,6.535-5.36,10.657-7.133s8.447-2.66,12.98-2.66c4.529,0,8.856,0.888,12.978,2.66
	c4.124,1.772,7.677,4.15,10.66,7.133c2.981,2.983,5.359,6.536,7.134,10.658c1.771,4.123,2.659,8.45,2.659,12.979
	c0,4.531-0.888,8.859-2.659,12.982c-1.774,4.121-4.152,7.674-7.134,10.656c-2.983,2.982-6.536,5.361-10.66,7.133
	c-4.121,1.773-8.448,2.66-12.978,2.66c-4.533,0-8.858-0.887-12.98-2.66c-4.122-1.771-7.676-4.15-10.657-7.133
	C228.535,91.736,226.157,88.184,224.384,84.063z M227.17,59.282c-1.604,3.757-2.405,7.69-2.405,11.798
	c0,4.108,0.802,8.041,2.405,11.799c1.604,3.758,3.764,6.992,6.479,9.709c2.716,2.715,5.951,4.875,9.709,6.479
	c3.756,1.604,7.688,2.406,11.798,2.406c4.108,0,8.04-0.803,11.796-2.406c3.759-1.604,6.994-3.764,9.71-6.479
	c2.715-2.717,4.875-5.951,6.479-9.709c1.604-3.758,2.407-7.69,2.407-11.799c0-4.107-0.803-8.041-2.407-11.798
	c-1.604-3.756-3.764-6.992-6.479-9.708c-2.716-2.715-5.951-4.875-9.71-6.479c-3.756-1.604-7.688-2.407-11.796-2.407
	c-4.109,0-8.042,0.803-11.798,2.407c-3.758,1.604-6.993,3.764-9.709,6.479C230.934,52.29,228.774,55.526,227.17,59.282z
	 M229.977,81.719c-1.449-3.377-2.173-6.924-2.173-10.639s0.724-7.26,2.173-10.637s3.391-6.282,5.825-8.716s5.341-4.375,8.718-5.825
	c3.376-1.449,6.923-2.174,10.637-2.174c3.715,0,7.261,0.725,10.638,2.174c3.377,1.45,6.281,3.392,8.715,5.825
	c2.433,2.434,4.376,5.339,5.826,8.716c1.447,3.377,2.174,6.922,2.174,10.637s-0.727,7.262-2.174,10.639
	c-1.45,3.377-3.394,6.281-5.826,8.715c-2.434,2.436-5.338,4.377-8.715,5.826c-3.377,1.451-6.923,2.174-10.638,2.174
	c-3.714,0-7.261-0.723-10.637-2.174c-3.377-1.449-6.283-3.391-8.718-5.826C233.367,88,231.426,85.096,229.977,81.719z
	 M232.763,61.646c-1.28,2.998-1.92,6.143-1.92,9.435s0.64,6.438,1.92,9.436c1.28,2.996,3.012,5.586,5.192,7.768
	c2.18,2.18,4.77,3.91,7.767,5.189c2.996,1.281,6.142,1.922,9.435,1.922c3.292,0,6.438-0.641,9.433-1.922
	c2.997-1.279,5.585-3.01,7.767-5.189c2.181-2.182,3.911-4.771,5.192-7.768c1.281-2.998,1.922-6.144,1.922-9.436
	s-0.641-6.437-1.922-9.435c-1.281-2.996-3.012-5.584-5.192-7.767c-2.182-2.18-4.77-3.909-7.767-5.19
	c-2.995-1.28-6.141-1.921-9.433-1.921c-3.293,0-6.438,0.641-9.435,1.921c-2.997,1.281-5.587,3.011-7.767,5.19
	C235.774,56.062,234.043,58.649,232.763,61.646z M236.73,81.76c-1.899-3.264-2.849-6.824-2.849-10.68
	c0-3.854,0.949-7.414,2.849-10.679c1.9-3.265,4.481-5.847,7.746-7.745c3.264-1.9,6.822-2.85,10.68-2.85
	c3.854,0,7.413,0.949,10.679,2.85c3.264,1.898,5.845,4.48,7.746,7.745c1.899,3.265,2.85,6.824,2.85,10.679
	c0,3.855-0.95,7.416-2.85,10.68c-1.901,3.266-4.482,5.848-7.746,7.746c-3.266,1.898-6.825,2.85-10.679,2.85
	c-3.857,0-7.416-0.951-10.68-2.85C241.212,87.607,238.631,85.025,236.73,81.76z M242.261,58.207
	c-3.561,3.573-5.34,7.864-5.34,12.873c0,5.01,1.779,9.303,5.34,12.875c3.56,3.574,7.856,5.361,12.896,5.361
	c5.035,0,9.335-1.787,12.895-5.361c3.56-3.572,5.341-7.865,5.341-12.875c0-5.009-1.781-9.3-5.341-12.873s-7.859-5.361-12.895-5.361
	C250.117,52.846,245.82,54.634,242.261,58.207z M244.413,81.822c-2.969-2.967-4.453-6.549-4.453-10.742
	c0-4.192,1.484-7.772,4.453-10.742c2.968-2.969,6.548-4.453,10.743-4.453c4.191,0,7.771,1.484,10.741,4.453
	c2.97,2.97,4.455,6.55,4.455,10.742c0,4.193-1.485,7.775-4.455,10.742c-2.97,2.971-6.55,4.455-10.741,4.455
	C250.961,86.277,247.381,84.793,244.413,81.822z M246.566,62.49c-2.379,2.379-3.567,5.242-3.567,8.59
	c0,3.349,1.188,6.213,3.567,8.592c2.377,2.377,5.239,3.566,8.59,3.566c3.347,0,6.211-1.189,8.588-3.566
	c2.378-2.379,3.569-5.243,3.569-8.592c0-3.348-1.191-6.211-3.569-8.59c-2.377-2.377-5.241-3.566-8.588-3.566
	C251.806,58.924,248.943,60.113,246.566,62.49z"/>
<path fill="#45B47D" d="M293.652,40.688h3.039v60.784h-3.039V40.688z M299.73,40.688h3.039v60.784h-3.039V40.688z M305.809,40.688
	h3.039v60.784h-3.039V40.688z M311.888,40.688h3.039v45.589h22.414v3.039h-22.414v3.039h22.414v3.039h-22.414v3.039h22.414v3.039
	h-25.453V40.688z"/>
<path fill="#45B47D" d="M406.736,71.502v29.971h-3.039V71.502c0-5.74-1.339-10.869-4.011-15.385
	c-2.674-4.518-6.318-8.005-10.933-10.468c-4.616-2.463-9.765-3.694-15.448-3.694c-5.46,0-10.456,1.31-14.984,3.927
	c-4.531,2.616-8.091,6.155-10.679,10.614c-2.591,4.462-3.884,9.322-3.884,14.584c0,3.461,0.555,6.748,1.665,9.857
	c1.113,3.109,2.633,5.826,4.559,8.145c1.93,2.322,4.152,4.328,6.671,6.018c2.519,1.688,5.234,2.969,8.146,3.842
	c2.912,0.871,5.875,1.307,8.887,1.307c3.318,0,6.472-0.633,9.455-1.9v3.125c-3.125,1.098-6.333,1.646-9.624,1.646
	c-3.407,0-6.719-0.479-9.94-1.436c-3.223-0.957-6.206-2.371-8.949-4.242s-5.157-4.08-7.239-6.627
	c-2.084-2.545-3.715-5.521-4.896-8.928c-1.182-3.404-1.771-7.008-1.771-10.807c0-4.361,0.821-8.519,2.468-12.474
	c1.646-3.952,3.897-7.371,6.754-10.256s6.316-5.178,10.385-6.881c4.066-1.701,8.391-2.554,12.979-2.554
	c4.67,0,9.06,0.789,13.17,2.364c4.107,1.576,7.653,3.764,10.637,6.563c2.981,2.801,5.332,6.24,7.048,10.32
	C405.876,62.245,406.736,66.69,406.736,71.502z M400.658,71.502v29.971h-3.039V71.502c0-4.643-1.063-8.759-3.188-12.346
	c-2.125-3.589-5.03-6.339-8.717-8.252s-7.824-2.871-12.409-2.871c-4.364,0-8.345,1.034-11.945,3.104
	c-3.604,2.067-6.423,4.861-8.463,8.378c-2.043,3.518-3.061,7.373-3.061,11.565c0,3.603,0.659,6.889,1.982,9.857
	s3.104,5.41,5.341,7.322c2.236,1.914,4.782,3.4,7.639,4.455s5.848,1.582,8.97,1.582c3.181,0,6.303-0.66,9.372-1.984v3.082
	c-3.208,1.209-6.36,1.814-9.455,1.814c-4.869,0-9.345-1.098-13.424-3.293c-4.08-2.193-7.344-5.303-9.793-9.326
	c-2.447-4.025-3.671-8.529-3.671-13.51c0-3.546,0.68-6.923,2.047-10.131c1.365-3.208,3.213-5.979,5.551-8.314
	c2.334-2.336,5.148-4.193,8.442-5.571c3.291-1.379,6.779-2.069,10.468-2.069c5.148,0,9.798,1.098,13.949,3.293
	c4.152,2.194,7.422,5.318,9.813,9.37S400.658,66.325,400.658,71.502z M362.669,18.148h21.23v3.039h-21.23
	c-0.902,0-1.584,0.009-2.049,0.021c-0.463,0.015-1.104,0.058-1.92,0.127c-0.816,0.07-1.45,0.176-1.898,0.316
	c-0.451,0.142-1.007,0.352-1.668,0.633c-0.662,0.282-1.182,0.62-1.562,1.013c-0.382,0.395-0.796,0.901-1.246,1.521
	c-0.451,0.619-0.789,1.322-1.014,2.11c-0.224,0.788-0.414,1.724-0.568,2.807c-0.155,1.085-0.231,2.287-0.231,3.609h-3.039
	c0-1.632,0.11-3.13,0.338-4.495c0.224-1.365,0.506-2.54,0.844-3.525c0.338-0.984,0.808-1.863,1.413-2.638
	c0.604-0.773,1.175-1.406,1.709-1.9c0.534-0.491,1.224-0.913,2.068-1.266c0.844-0.351,1.563-0.612,2.153-0.781
	c0.592-0.169,1.364-0.302,2.322-0.401c0.955-0.097,1.695-0.153,2.215-0.168C361.057,18.157,361.767,18.148,362.669,18.148z
	 M394.58,71.502v29.971h-3.039V71.502c0-5.318-1.705-9.545-5.109-12.684c-3.404-3.138-7.78-4.707-13.126-4.707
	c-4.954,0-9.092,1.647-12.41,4.939c-3.321,3.292-4.98,7.302-4.98,12.029c0,2.87,0.498,5.445,1.497,7.725
	c0.999,2.281,2.356,4.109,4.075,5.488c1.714,1.379,3.636,2.426,5.762,3.146c2.123,0.717,4.368,1.074,6.732,1.074
	c3.208,0,6.259-0.744,9.159-2.236v3.209c-3.039,1.264-6.108,1.898-9.203,1.898c-2.785,0-5.431-0.428-7.936-1.289
	c-2.505-0.857-4.741-2.109-6.71-3.756c-1.971-1.646-3.534-3.783-4.686-6.416c-1.154-2.631-1.73-5.579-1.73-8.844
	c0-5.543,1.962-10.264,5.887-14.162c3.927-3.896,8.772-5.846,14.543-5.846c4.053,0,7.682,0.824,10.89,2.47
	c3.208,1.646,5.74,4.031,7.598,7.154C393.65,63.82,394.58,67.422,394.58,71.502z M389.978,18.148h3.039
	c0,1.267-0.12,2.393-0.358,3.377c-0.238,0.985-0.534,1.794-0.886,2.428c-0.352,0.633-0.823,1.168-1.413,1.604
	c-0.593,0.438-1.12,0.767-1.585,0.992s-1.055,0.395-1.771,0.507c-0.72,0.112-1.261,0.176-1.626,0.189
	c-0.365,0.016-0.858,0.021-1.478,0.021h-21.23c-0.818,0-1.43,0.016-1.836,0.043c-0.41,0.028-0.938,0.147-1.585,0.358
	s-1.126,0.514-1.434,0.908c-0.311,0.395-0.592,0.991-0.845,1.794c-0.254,0.801-0.379,1.793-0.379,2.976h-3.039
	c0-1.267,0.118-2.392,0.358-3.377c0.238-0.984,0.534-1.794,0.886-2.428c0.352-0.633,0.823-1.167,1.413-1.604
	c0.593-0.436,1.119-0.766,1.585-0.991c0.462-0.226,1.055-0.395,1.771-0.507s1.258-0.176,1.626-0.19
	c0.365-0.013,0.857-0.021,1.478-0.021h21.23c0.816,0,1.429-0.014,1.836-0.041c0.407-0.028,0.935-0.148,1.585-0.36
	c0.645-0.21,1.124-0.512,1.434-0.906s0.592-0.992,0.844-1.795C389.853,20.323,389.978,19.33,389.978,18.148z M385.463,71.502
	c0-3.601-1.112-6.387-3.336-8.357c-2.225-1.97-5.164-2.955-8.821-2.955c-3.097,0-5.757,1.07-7.979,3.208
	c-2.223,2.14-3.332,4.7-3.332,7.683c0,1.688,0.224,3.202,0.675,4.538c0.449,1.337,1.062,2.448,1.834,3.335
	c0.775,0.887,1.695,1.619,2.767,2.193c1.068,0.58,2.188,0.994,3.355,1.248c1.166,0.252,2.413,0.379,3.735,0.379
	c3.208,0,6.134-0.787,8.78-2.363v3.039c-2.731,1.436-5.671,2.152-8.821,2.152c-2.026,0-3.935-0.275-5.72-0.822
	c-1.788-0.549-3.414-1.379-4.876-2.492c-1.464-1.109-2.625-2.629-3.483-4.559c-0.857-1.927-1.286-4.144-1.286-6.648
	c0-3.884,1.362-7.176,4.095-9.877c2.729-2.702,6.147-4.053,10.257-4.053c4.529,0,8.195,1.274,10.996,3.82
	c2.799,2.548,4.2,6.058,4.2,10.531v29.971h-3.039V71.502z M396.056,18.148h3.039c0,1.633-0.113,3.132-0.338,4.495
	c-0.224,1.366-0.506,2.541-0.844,3.525c-0.338,0.985-0.81,1.865-1.413,2.638c-0.606,0.774-1.175,1.408-1.71,1.899
	c-0.536,0.493-1.223,0.915-2.067,1.267c-0.844,0.353-1.563,0.612-2.153,0.781c-0.592,0.168-1.367,0.303-2.322,0.4
	c-0.957,0.1-1.695,0.155-2.216,0.169c-0.521,0.016-1.232,0.021-2.132,0.021h-21.23v-3.039h21.23c0.899,0,1.584-0.006,2.047-0.021
	c0.465-0.014,1.105-0.056,1.922-0.127c0.814-0.069,1.447-0.175,1.898-0.315c0.449-0.142,1.007-0.352,1.668-0.634
	c0.661-0.281,1.182-0.619,1.562-1.014c0.379-0.393,0.795-0.899,1.246-1.52c0.449-0.618,0.786-1.321,1.013-2.11
	c0.225-0.787,0.414-1.723,0.569-2.807C395.979,20.676,396.056,19.472,396.056,18.148z"/>
<path fill="#45B47D" d="M413.576,84.063c-1.774-4.123-2.66-8.451-2.66-12.982c0-4.529,0.886-8.856,2.66-12.979
	c1.771-4.122,4.149-7.675,7.133-10.658c2.981-2.982,6.536-5.36,10.657-7.133c4.122-1.772,8.449-2.66,12.98-2.66
	s8.855,0.888,12.979,2.66c4.122,1.772,7.675,4.15,10.658,7.133c2.981,2.983,5.361,6.536,7.133,10.658
	c1.774,4.123,2.66,8.45,2.66,12.979c0,4.531-0.886,8.859-2.66,12.982c-1.771,4.121-4.151,7.674-7.133,10.656
	c-2.983,2.982-6.536,5.361-10.658,7.133c-4.124,1.773-8.448,2.66-12.979,2.66s-8.858-0.887-12.98-2.66
	c-4.121-1.771-7.676-4.15-10.657-7.133C417.726,91.736,415.348,88.184,413.576,84.063z M416.36,59.282
	c-1.603,3.757-2.405,7.69-2.405,11.798c0,4.108,0.803,8.041,2.405,11.799c1.605,3.758,3.764,6.992,6.48,9.709
	c2.716,2.715,5.951,4.875,9.708,6.479c3.756,1.604,7.688,2.406,11.798,2.406c4.107,0,8.042-0.803,11.798-2.406
	s6.992-3.764,9.707-6.479c2.716-2.717,4.876-5.951,6.48-9.709c1.604-3.758,2.406-7.69,2.406-11.799
	c0-4.107-0.803-8.041-2.406-11.798c-1.604-3.756-3.765-6.992-6.48-9.708c-2.715-2.715-5.951-4.875-9.707-6.479
	c-3.756-1.604-7.69-2.407-11.798-2.407c-4.11,0-8.042,0.803-11.798,2.407c-3.757,1.604-6.992,3.764-9.708,6.479
	C420.124,52.29,417.966,55.526,416.36,59.282z M419.168,81.719c-1.45-3.377-2.174-6.924-2.174-10.639s0.724-7.26,2.174-10.637
	c1.448-3.377,3.391-6.282,5.824-8.716c2.436-2.434,5.341-4.375,8.718-5.825c3.376-1.449,6.922-2.174,10.637-2.174
	c3.714,0,7.26,0.725,10.637,2.174c3.377,1.45,6.282,3.392,8.718,5.825c2.433,2.434,4.373,5.339,5.823,8.716
	s2.174,6.922,2.174,10.637s-0.724,7.262-2.174,10.639s-3.391,6.281-5.823,8.715c-2.436,2.436-5.341,4.377-8.718,5.826
	c-3.377,1.451-6.923,2.174-10.637,2.174c-3.715,0-7.261-0.723-10.637-2.174c-3.377-1.449-6.282-3.391-8.718-5.826
	C422.559,88,420.616,85.096,419.168,81.719z M421.953,61.646c-1.279,2.998-1.92,6.143-1.92,9.435s0.641,6.438,1.92,9.436
	c1.281,2.996,3.012,5.586,5.192,7.768c2.181,2.18,4.77,3.91,7.767,5.189c2.998,1.281,6.141,1.922,9.435,1.922
	c3.291,0,6.437-0.641,9.434-1.922c2.998-1.279,5.586-3.01,7.768-5.189c2.181-2.182,3.911-4.771,5.192-7.768
	c1.278-2.998,1.919-6.144,1.919-9.436s-0.641-6.437-1.919-9.435c-1.281-2.996-3.012-5.584-5.192-7.767
	c-2.182-2.18-4.77-3.909-7.768-5.19c-2.997-1.28-6.143-1.921-9.434-1.921c-3.294,0-6.437,0.641-9.435,1.921
	c-2.997,1.281-5.586,3.011-7.767,5.19C424.965,56.062,423.234,58.649,421.953,61.646z M425.922,81.76
	c-1.898-3.264-2.85-6.824-2.85-10.68c0-3.854,0.951-7.414,2.85-10.679c1.899-3.265,4.48-5.847,7.746-7.745
	c3.264-1.9,6.823-2.85,10.679-2.85s7.415,0.949,10.679,2.85c3.263,1.898,5.847,4.48,7.745,7.745c1.899,3.265,2.85,6.824,2.85,10.679
	c0,3.855-0.95,7.416-2.85,10.68c-1.898,3.266-4.482,5.848-7.745,7.746c-3.264,1.898-6.823,2.85-10.679,2.85
	s-7.415-0.951-10.679-2.85C430.402,87.607,427.821,85.025,425.922,81.76z M431.452,58.207c-3.562,3.573-5.341,7.864-5.341,12.873
	c0,5.01,1.779,9.303,5.341,12.875c3.56,3.574,7.856,5.361,12.895,5.361c5.037,0,9.335-1.787,12.895-5.361
	c3.56-3.572,5.34-7.865,5.34-12.875c0-5.009-1.78-9.3-5.34-12.873s-7.857-5.361-12.895-5.361
	C439.309,52.846,435.012,54.634,431.452,58.207z M433.604,81.822c-2.968-2.967-4.453-6.549-4.453-10.742
	c0-4.192,1.485-7.772,4.453-10.742c2.97-2.969,6.55-4.453,10.743-4.453s7.773,1.484,10.743,4.453
	c2.968,2.97,4.452,6.55,4.452,10.742c0,4.193-1.484,7.775-4.452,10.742c-2.97,2.971-6.55,4.455-10.743,4.455
	S436.573,84.793,433.604,81.822z M435.757,62.49c-2.378,2.379-3.566,5.242-3.566,8.59c0,3.349,1.188,6.213,3.566,8.592
	c2.377,2.377,5.24,3.566,8.59,3.566c3.349,0,6.212-1.189,8.59-3.566c2.378-2.379,3.566-5.243,3.566-8.592
	c0-3.348-1.188-6.211-3.566-8.59c-2.378-2.377-5.241-3.566-8.59-3.566C440.997,58.924,438.134,60.113,435.757,62.49z"/>
<g>
	<path fill="#58595B" d="M170.333,117.156h1.711v5.174c-0.711,0.563-1.543,1.014-2.496,1.348c-0.953,0.336-1.899,0.504-2.838,0.504
		c-1.356,0-2.597-0.318-3.725-0.957c-1.127-0.637-2.017-1.51-2.667-2.617s-0.976-2.318-0.976-3.633s0.329-2.52,0.986-3.613
		c0.657-1.094,1.557-1.957,2.698-2.588c1.141-0.631,2.402-0.945,3.785-0.945c0.979,0,1.936,0.174,2.869,0.523
		c0.933,0.35,1.741,0.824,2.426,1.43l-1.107,1.408c-0.563-0.523-1.211-0.93-1.942-1.217c-0.732-0.289-1.48-0.434-2.245-0.434
		c-1.007,0-1.933,0.242-2.778,0.725s-1.513,1.141-2.003,1.973c-0.49,0.832-0.735,1.744-0.735,2.738c0,0.992,0.248,1.908,0.745,2.748
		c0.497,0.838,1.168,1.504,2.013,1.992c0.846,0.49,1.771,0.734,2.778,0.734c0.59,0,1.191-0.096,1.802-0.291
		c0.61-0.195,1.178-0.467,1.701-0.814V117.156z"/>
	<path fill="#58595B" d="M187.565,114.791c0.846,0.973,1.268,2.324,1.268,4.055c0,0.27-0.007,0.471-0.02,0.605h-8.415
		c0.148,0.953,0.547,1.711,1.198,2.273c0.65,0.564,1.453,0.846,2.405,0.846c0.631,0,1.218-0.113,1.762-0.342
		s1.017-0.551,1.419-0.967l1.026,1.068c-0.523,0.563-1.154,1-1.892,1.309c-0.738,0.309-1.557,0.463-2.456,0.463
		c-1.047,0-1.977-0.225-2.788-0.676c-0.813-0.449-1.443-1.082-1.893-1.902c-0.45-0.818-0.674-1.75-0.674-2.797
		s0.225-1.977,0.674-2.789s1.077-1.449,1.882-1.912s1.725-0.695,2.758-0.695C185.472,113.33,186.72,113.816,187.565,114.791z
		 M187.143,118.002c-0.054-0.967-0.376-1.729-0.966-2.285c-0.591-0.557-1.369-0.836-2.335-0.836c-0.94,0-1.721,0.281-2.346,0.846
		c-0.624,0.563-0.996,1.322-1.117,2.275H187.143z"/>
	<path fill="#58595B" d="M198.778,113.945c0.644-0.396,1.409-0.602,2.295-0.615v1.813c-1.087-0.041-1.966,0.242-2.637,0.846
		c-0.671,0.604-1.054,1.416-1.147,2.436v5.617h-1.872v-10.65h1.872v2.295C197.638,114.922,198.134,114.34,198.778,113.945z"/>
	<path fill="#58595B" d="M215.146,114.791c0.845,0.973,1.268,2.324,1.268,4.055c0,0.27-0.007,0.471-0.02,0.605h-8.416
		c0.148,0.953,0.547,1.711,1.198,2.273c0.65,0.564,1.453,0.846,2.405,0.846c0.631,0,1.218-0.113,1.762-0.342
		c0.543-0.229,1.017-0.551,1.419-0.967l1.026,1.068c-0.523,0.563-1.154,1-1.893,1.309c-0.737,0.309-1.557,0.463-2.456,0.463
		c-1.047,0-1.977-0.225-2.788-0.676c-0.813-0.449-1.443-1.082-1.893-1.902c-0.45-0.818-0.674-1.75-0.674-2.797
		s0.225-1.977,0.674-2.789s1.077-1.449,1.882-1.912s1.725-0.695,2.758-0.695C213.051,113.33,214.3,113.816,215.146,114.791z
		 M214.723,118.002c-0.054-0.967-0.376-1.729-0.967-2.285s-1.369-0.836-2.335-0.836c-0.94,0-1.721,0.281-2.346,0.846
		c-0.624,0.563-0.996,1.322-1.117,2.275H214.723z"/>
	<path fill="#58595B" d="M231.854,114.428c0.712,0.732,1.067,1.742,1.067,3.029v6.584h-1.872v-6.08c0-0.898-0.252-1.6-0.755-2.104
		c-0.504-0.504-1.198-0.756-2.084-0.756c-0.953,0.014-1.729,0.32-2.325,0.916c-0.598,0.598-0.936,1.373-1.017,2.326v5.697h-1.872
		v-10.65h1.872v2.256c0.711-1.518,2.061-2.289,4.047-2.316C230.163,113.33,231.143,113.697,231.854,114.428z"/>
	<path fill="#58595B" d="M244.718,115.002c-0.698,0-1.318,0.154-1.862,0.463c-0.543,0.309-0.97,0.744-1.278,1.309
		c-0.309,0.563-0.463,1.215-0.463,1.953s0.151,1.389,0.453,1.951c0.302,0.564,0.718,1.004,1.248,1.32
		c0.53,0.314,1.138,0.473,1.822,0.473s1.302-0.115,1.852-0.342c0.551-0.229,1.007-0.559,1.369-0.986l1.067,1.086
		c-0.483,0.604-1.098,1.066-1.843,1.389c-0.744,0.322-1.587,0.484-2.526,0.484c-1.033,0-1.952-0.229-2.758-0.686
		c-0.806-0.455-1.433-1.09-1.882-1.902c-0.45-0.811-0.675-1.74-0.675-2.787s0.225-1.98,0.675-2.799
		c0.449-0.818,1.076-1.457,1.882-1.912c0.806-0.457,1.725-0.686,2.758-0.686c0.899,0,1.708,0.139,2.426,0.414
		c0.718,0.273,1.319,0.674,1.802,1.197l-1.026,1.289C246.912,115.41,245.898,115.002,244.718,115.002z"/>
	<path fill="#58595B" d="M257.391,109.486c0.221,0.229,0.332,0.516,0.332,0.865s-0.111,0.637-0.332,0.865
		c-0.222,0.229-0.5,0.342-0.836,0.342c-0.335,0-0.614-0.113-0.835-0.342c-0.222-0.229-0.332-0.516-0.332-0.865
		s0.11-0.637,0.332-0.865c0.221-0.229,0.5-0.344,0.835-0.344C256.891,109.143,257.169,109.258,257.391,109.486z M255.629,113.391
		h1.872v10.65h-1.872V113.391z"/>
	<path fill="#58595B" d="M271.673,124.041v-1.49c-0.792,1.047-2.033,1.57-3.724,1.57c-0.738,0-1.386-0.141-1.943-0.422
		c-0.557-0.283-0.986-0.672-1.288-1.168s-0.453-1.055-0.453-1.672c0-0.953,0.353-1.707,1.058-2.264
		c0.704-0.557,1.688-0.844,2.949-0.855h3.382v-0.504c0-0.752-0.231-1.332-0.694-1.742c-0.464-0.408-1.138-0.613-2.023-0.613
		c-1.074,0-2.168,0.383-3.281,1.146l-0.785-1.287c0.765-0.496,1.473-0.855,2.124-1.078c0.65-0.221,1.426-0.332,2.325-0.332
		c1.328,0,2.354,0.326,3.08,0.977c0.725,0.652,1.093,1.561,1.106,2.729l0.021,7.006H271.673z M270.556,121.938
		c0.611-0.424,0.977-0.984,1.098-1.682v-1.066h-3.12c-0.846,0-1.474,0.127-1.883,0.383c-0.409,0.254-0.614,0.656-0.614,1.207
		s0.208,0.986,0.624,1.309s0.974,0.482,1.671,0.482C269.204,122.57,269.945,122.359,270.556,121.938z"/>
	<path fill="#58595B" d="M290.818,109.104v14.938h-1.872v-2.115c-0.403,0.713-0.943,1.26-1.621,1.643
		c-0.678,0.381-1.466,0.572-2.365,0.572c-1.007,0-1.896-0.23-2.667-0.693c-0.772-0.463-1.373-1.107-1.802-1.934
		c-0.43-0.824-0.645-1.768-0.645-2.828c0-1.047,0.215-1.977,0.645-2.789c0.429-0.811,1.029-1.445,1.802-1.902
		c0.771-0.455,1.653-0.684,2.646-0.684c0.913,0,1.712,0.188,2.396,0.564c0.684,0.375,1.221,0.918,1.61,1.629v-6.4H290.818z
		 M287.205,122.047c0.543-0.322,0.969-0.771,1.278-1.348c0.309-0.578,0.463-1.229,0.463-1.953c0-0.738-0.154-1.396-0.463-1.973
		c-0.31-0.578-0.735-1.027-1.278-1.35c-0.544-0.322-1.165-0.482-1.862-0.482c-0.698,0-1.319,0.164-1.862,0.492
		c-0.544,0.33-0.97,0.783-1.278,1.359c-0.309,0.578-0.463,1.229-0.463,1.953s0.154,1.375,0.463,1.953
		c0.309,0.576,0.734,1.025,1.278,1.348c0.543,0.322,1.164,0.484,1.862,0.484C286.04,122.531,286.661,122.369,287.205,122.047z"/>
	<path fill="#58595B" d="M305.866,114.016c0.826,0.455,1.47,1.09,1.933,1.902c0.464,0.813,0.695,1.74,0.695,2.787
		s-0.231,1.98-0.695,2.799c-0.463,0.818-1.106,1.457-1.933,1.912c-0.825,0.457-1.768,0.686-2.828,0.686
		c-1.074,0-2.023-0.229-2.849-0.686c-0.825-0.455-1.47-1.09-1.933-1.902c-0.463-0.811-0.694-1.748-0.694-2.809
		c0-1.047,0.231-1.975,0.694-2.787s1.107-1.447,1.933-1.902c0.825-0.457,1.774-0.686,2.849-0.686
		C304.099,113.33,305.041,113.559,305.866,114.016z M301.176,115.445c-0.543,0.32-0.966,0.768-1.268,1.338
		c-0.303,0.57-0.453,1.219-0.453,1.943c0,0.738,0.15,1.395,0.453,1.973c0.302,0.576,0.725,1.023,1.268,1.338
		c0.544,0.316,1.164,0.473,1.862,0.473c0.685,0,1.299-0.156,1.842-0.473c0.544-0.314,0.967-0.762,1.269-1.338
		c0.302-0.578,0.453-1.234,0.453-1.973c0-0.725-0.151-1.373-0.453-1.943s-0.725-1.018-1.269-1.338
		c-0.543-0.322-1.157-0.484-1.842-0.484C302.34,114.961,301.72,115.123,301.176,115.445z"/>
	<path fill="#58595B" d="M318.499,113.945c0.644-0.396,1.409-0.602,2.295-0.615v1.813c-1.088-0.041-1.967,0.242-2.638,0.846
		s-1.054,1.416-1.147,2.436v5.617h-1.872v-10.65h1.872v2.295C317.357,114.922,317.854,114.34,318.499,113.945z"/>
	<path fill="#58595B" d="M346.078,109.104v14.938h-1.872v-2.115c-0.403,0.713-0.943,1.26-1.621,1.643
		c-0.678,0.381-1.466,0.572-2.365,0.572c-1.007,0-1.896-0.23-2.667-0.693c-0.772-0.463-1.373-1.107-1.802-1.934
		c-0.43-0.824-0.645-1.768-0.645-2.828c0-1.047,0.215-1.977,0.645-2.789c0.429-0.811,1.029-1.445,1.802-1.902
		c0.771-0.455,1.653-0.684,2.646-0.684c0.913,0,1.712,0.188,2.396,0.564c0.684,0.375,1.221,0.918,1.61,1.629v-6.4H346.078z
		 M342.465,122.047c0.543-0.322,0.969-0.771,1.278-1.348c0.309-0.578,0.463-1.229,0.463-1.953c0-0.738-0.154-1.396-0.463-1.973
		c-0.31-0.578-0.735-1.027-1.278-1.35c-0.544-0.322-1.165-0.482-1.862-0.482c-0.698,0-1.319,0.164-1.862,0.492
		c-0.544,0.33-0.97,0.783-1.278,1.359c-0.309,0.578-0.463,1.229-0.463,1.953s0.154,1.375,0.463,1.953
		c0.309,0.576,0.734,1.025,1.278,1.348c0.543,0.322,1.164,0.484,1.862,0.484C341.3,122.531,341.921,122.369,342.465,122.047z"/>
	<path fill="#58595B" d="M361.882,114.791c0.845,0.973,1.268,2.324,1.268,4.055c0,0.27-0.007,0.471-0.02,0.605h-8.415
		c0.147,0.953,0.547,1.711,1.197,2.273c0.651,0.564,1.453,0.846,2.406,0.846c0.631,0,1.218-0.113,1.762-0.342
		c0.543-0.229,1.017-0.551,1.419-0.967l1.026,1.068c-0.523,0.563-1.154,1-1.893,1.309s-1.557,0.463-2.456,0.463
		c-1.047,0-1.976-0.225-2.788-0.676c-0.812-0.449-1.442-1.082-1.892-1.902c-0.45-0.818-0.675-1.75-0.675-2.797
		s0.225-1.977,0.675-2.789c0.449-0.813,1.076-1.449,1.882-1.912s1.725-0.695,2.758-0.695
		C359.788,113.33,361.036,113.816,361.882,114.791z M361.459,118.002c-0.054-0.967-0.376-1.729-0.967-2.285
		s-1.369-0.836-2.335-0.836c-0.939,0-1.722,0.281-2.346,0.846c-0.624,0.563-0.996,1.322-1.117,2.275H361.459z"/>
	<path fill="#58595B" d="M385.535,124.041v-1.49c-0.792,1.047-2.033,1.57-3.724,1.57c-0.738,0-1.386-0.141-1.943-0.422
		c-0.557-0.283-0.986-0.672-1.288-1.168s-0.453-1.055-0.453-1.672c0-0.953,0.353-1.707,1.058-2.264
		c0.704-0.557,1.688-0.844,2.949-0.855h3.382v-0.504c0-0.752-0.231-1.332-0.694-1.742c-0.464-0.408-1.138-0.613-2.023-0.613
		c-1.074,0-2.168,0.383-3.281,1.146l-0.785-1.287c0.765-0.496,1.473-0.855,2.124-1.078c0.65-0.221,1.426-0.332,2.325-0.332
		c1.328,0,2.354,0.326,3.08,0.977c0.725,0.652,1.093,1.561,1.106,2.729l0.021,7.006H385.535z M384.418,121.938
		c0.611-0.424,0.977-0.984,1.098-1.682v-1.066h-3.12c-0.846,0-1.474,0.127-1.883,0.383c-0.409,0.254-0.614,0.656-0.614,1.207
		s0.208,0.986,0.624,1.309s0.974,0.482,1.671,0.482C383.066,122.57,383.808,122.359,384.418,121.938z"/>
	<path fill="#58595B" d="M403.332,114.016c0.778,0.455,1.382,1.094,1.812,1.912s0.645,1.758,0.645,2.818
		c0,1.047-0.212,1.977-0.635,2.787c-0.423,0.813-1.02,1.443-1.791,1.893c-0.772,0.451-1.654,0.676-2.647,0.676
		c-0.899,0-1.691-0.188-2.376-0.564c-0.685-0.375-1.221-0.912-1.61-1.611v6.02h-1.872v-14.555h1.872v2.113
		c0.39-0.697,0.923-1.234,1.601-1.609s1.46-0.564,2.346-0.564C401.667,113.33,402.554,113.559,403.332,114.016z M402.154,121.986
		c0.543-0.322,0.966-0.771,1.268-1.348c0.303-0.578,0.453-1.229,0.453-1.953c0-0.711-0.154-1.355-0.463-1.932
		c-0.309-0.578-0.731-1.027-1.269-1.35c-0.536-0.322-1.147-0.482-1.831-0.482c-0.685,0-1.299,0.16-1.843,0.482
		c-0.543,0.322-0.97,0.771-1.278,1.35c-0.309,0.576-0.463,1.221-0.463,1.932c0,0.738,0.154,1.393,0.463,1.963
		s0.735,1.016,1.278,1.338c0.544,0.322,1.158,0.484,1.843,0.484C400.996,122.471,401.61,122.309,402.154,121.986z"/>
	<path fill="#58595B" d="M419.688,114.016c0.826,0.455,1.47,1.09,1.933,1.902c0.464,0.813,0.695,1.74,0.695,2.787
		s-0.231,1.98-0.695,2.799c-0.463,0.818-1.106,1.457-1.933,1.912c-0.825,0.457-1.768,0.686-2.828,0.686
		c-1.074,0-2.023-0.229-2.849-0.686c-0.825-0.455-1.47-1.09-1.933-1.902c-0.463-0.811-0.694-1.748-0.694-2.809
		c0-1.047,0.231-1.975,0.694-2.787s1.107-1.447,1.933-1.902c0.825-0.457,1.774-0.686,2.849-0.686
		C417.92,113.33,418.862,113.559,419.688,114.016z M414.997,115.445c-0.543,0.32-0.966,0.768-1.268,1.338
		c-0.303,0.57-0.453,1.219-0.453,1.943c0,0.738,0.15,1.395,0.453,1.973c0.302,0.576,0.725,1.023,1.268,1.338
		c0.544,0.316,1.164,0.473,1.862,0.473c0.685,0,1.299-0.156,1.842-0.473c0.544-0.314,0.967-0.762,1.269-1.338
		c0.302-0.578,0.453-1.234,0.453-1.973c0-0.725-0.151-1.373-0.453-1.943s-0.725-1.018-1.269-1.338
		c-0.543-0.322-1.157-0.484-1.842-0.484C416.161,114.961,415.541,115.123,414.997,115.445z"/>
	<path fill="#58595B" d="M433.316,115.102c-0.53-0.16-1.037-0.24-1.52-0.24c-0.564,0-1.017,0.104-1.359,0.311
		c-0.342,0.209-0.514,0.527-0.514,0.957s0.191,0.756,0.574,0.977s0.963,0.445,1.741,0.674c0.738,0.215,1.342,0.43,1.812,0.645
		s0.869,0.531,1.198,0.945c0.329,0.418,0.493,0.967,0.493,1.652c0,1.006-0.379,1.771-1.138,2.295
		c-0.758,0.523-1.701,0.785-2.828,0.785c-0.792,0-1.561-0.129-2.305-0.383c-0.745-0.256-1.373-0.617-1.883-1.088l0.705-1.369
		c0.442,0.402,0.989,0.725,1.641,0.967c0.65,0.242,1.285,0.363,1.902,0.363s1.113-0.115,1.489-0.344
		c0.376-0.227,0.563-0.576,0.563-1.047c0-0.482-0.197-0.844-0.594-1.086c-0.396-0.242-0.996-0.484-1.802-0.725
		c-0.711-0.201-1.292-0.406-1.741-0.615c-0.449-0.207-0.832-0.512-1.147-0.916c-0.315-0.402-0.473-0.926-0.473-1.57
		c0-0.992,0.362-1.736,1.087-2.234c0.725-0.496,1.631-0.744,2.718-0.744c0.645,0,1.278,0.09,1.902,0.271s1.164,0.426,1.62,0.734
		l-0.684,1.43C434.333,115.479,433.847,115.264,433.316,115.102z"/>
	<path fill="#58595B" d="M447.962,123.336c-0.818,0.523-1.65,0.785-2.496,0.785s-1.529-0.252-2.053-0.756
		c-0.523-0.502-0.785-1.264-0.785-2.283v-5.898h-1.51v-1.43h1.51v-2.859h1.892v2.859h3.262v1.43h-3.262v5.555
		c0,0.592,0.107,1.014,0.322,1.27c0.215,0.254,0.537,0.383,0.967,0.383c0.51,0,1.06-0.168,1.65-0.504L447.962,123.336z"/>
	<path fill="#58595B" d="M460.765,124.041v-1.49c-0.792,1.047-2.033,1.57-3.724,1.57c-0.738,0-1.386-0.141-1.943-0.422
		c-0.557-0.283-0.986-0.672-1.288-1.168s-0.453-1.055-0.453-1.672c0-0.953,0.353-1.707,1.058-2.264
		c0.704-0.557,1.688-0.844,2.949-0.855h3.382v-0.504c0-0.752-0.231-1.332-0.694-1.742c-0.464-0.408-1.138-0.613-2.023-0.613
		c-1.074,0-2.168,0.383-3.281,1.146l-0.785-1.287c0.765-0.496,1.473-0.855,2.124-1.078c0.65-0.221,1.426-0.332,2.325-0.332
		c1.328,0,2.354,0.326,3.08,0.977c0.725,0.652,1.093,1.561,1.106,2.729l0.021,7.006H460.765z M459.647,121.938
		c0.611-0.424,0.977-0.984,1.098-1.682v-1.066h-3.12c-0.846,0-1.474,0.127-1.883,0.383c-0.409,0.254-0.614,0.656-0.614,1.207
		s0.208,0.986,0.624,1.309s0.974,0.482,1.671,0.482C458.296,122.57,459.037,122.359,459.647,121.938z"/>
	<path fill="#58595B" d="M474.344,115.102c-0.53-0.16-1.037-0.24-1.52-0.24c-0.564,0-1.017,0.104-1.359,0.311
		c-0.342,0.209-0.514,0.527-0.514,0.957s0.191,0.756,0.574,0.977s0.963,0.445,1.741,0.674c0.738,0.215,1.342,0.43,1.812,0.645
		s0.869,0.531,1.198,0.945c0.329,0.418,0.493,0.967,0.493,1.652c0,1.006-0.379,1.771-1.138,2.295
		c-0.758,0.523-1.701,0.785-2.828,0.785c-0.792,0-1.561-0.129-2.305-0.383c-0.745-0.256-1.373-0.617-1.883-1.088l0.705-1.369
		c0.442,0.402,0.989,0.725,1.641,0.967c0.65,0.242,1.285,0.363,1.902,0.363s1.113-0.115,1.489-0.344
		c0.376-0.227,0.563-0.576,0.563-1.047c0-0.482-0.197-0.844-0.594-1.086c-0.396-0.242-0.996-0.484-1.802-0.725
		c-0.711-0.201-1.292-0.406-1.741-0.615c-0.449-0.207-0.832-0.512-1.147-0.916c-0.315-0.402-0.473-0.926-0.473-1.57
		c0-0.992,0.362-1.736,1.087-2.234c0.725-0.496,1.631-0.744,2.718-0.744c0.645,0,1.278,0.09,1.902,0.271s1.164,0.426,1.62,0.734
		l-0.684,1.43C475.36,115.479,474.874,115.264,474.344,115.102z"/>
</g>
<g>
</g>
<g>
</g>
<g>
</g>
<g>
</g>
<g>
</g>
<g>
</g>
</svg>
